  0
SECTION
  2
HEADER
  9
$ACADVER
  1
AC1014
  9
$HANDSEED
  5
FFFF
  9
$MEASUREMENT
 70
     1
  0
ENDSEC
  0
SECTION
  2
TABLES
  0
TABLE
  2
VPORT
  5
8
330
0
100
AcDbSymbolTable
 70
     4
  0
VPORT
  5
2E
330
8
100
AcDbSymbolTableRecord
100
AcDbViewportTableRecord
  2
*ACTIVE
 70
     0
 10
0.0
 20
0.0
 11
1.0
 21
1.0
 12
210.0
 22
148.5
 13
0.0
 23
0.0
 14
10.0
 24
10.0
 15
10.0
 25
10.0
 16
0.0
 26
0.0
 36
1.0
 17
0.0
 27
0.0
 37
0.0
 40
341.0
 41
1.24
 42
50.0
 43
0.0
 44
0.0
 50
0.0
 51
0.0
 71
     0
 72
   100
 73
     1
 74
     3
 75
     0
 76
     0
 77
     0
 78
     0
  0
ENDTAB
  0
TABLE
  2
LTYPE
  5
5
330
0
100
AcDbSymbolTable
 70
     1
  0
LTYPE
  5
14
330
5
100
AcDbSymbolTableRecord
100
AcDbLinetypeTableRecord
  2
BYBLOCK
 70
     0
  3

 72
    65
 73
     0
 40
0.0
  0
LTYPE
  5
15
330
5
100
AcDbSymbolTableRecord
100
AcDbLinetypeTableRecord
  2
BYLAYER
 70
     0
  3

 72
    65
 73
     0
 40
0.0
  0
LTYPE
  5
16
330
5
100
AcDbSymbolTableRecord
100
AcDbLinetypeTableRecord
  2
CONTINUOUS
 70
     0
  3
Solid line
 72
    65
 73
     0
 40
0.0
  0
ENDTAB
  0
TABLE
  2
LAYER
  5
2
100
AcDbSymbolTable
 70
2
  0
LAYER
  5
50
100
AcDbSymbolTableRecord
100
AcDbLayerTableRecord
  2
0
 70
0
  6
CONTINUOUS
  0
LAYER
  5
51
100
AcDbSymbolTableRecord
100
AcDbLayerTableRecord
  2
Layer_1
 70
0
  6
CONTINUOUS
  0
ENDTAB
  0
TABLE
  2
STYLE
  5
3
330
0
100
AcDbSymbolTable
 70
     1
  0
STYLE
  5
11
330
3
100
AcDbSymbolTableRecord
100
AcDbTextStyleTableRecord
  2
STANDARD
 70
     0
 40
0.0
 41
1.0
 50
0.0
 71
     0
 42
2.5
  3
txt
  4

  0
ENDTAB
  0
TABLE
  2
VIEW
  5
6
330
0
100
AcDbSymbolTable
 70
     0
  0
ENDTAB
  0
TABLE
  2
UCS
  5
7
330
0
100
AcDbSymbolTable
 70
     0
  0
ENDTAB
  0
TABLE
  2
APPID
  5
9
330
0
100
AcDbSymbolTable
 70
     2
  0
APPID
  5
12
330
9
100
AcDbSymbolTableRecord
100
AcDbRegAppTableRecord
  2
ACAD
 70
     0
  0
ENDTAB
  0
TABLE
  2
DIMSTYLE
  5
A
330
0
100
AcDbSymbolTable
 70
     1
  0
DIMSTYLE
105
27
330
A
100
AcDbSymbolTableRecord
100
AcDbDimStyleTableRecord
  2
ISO-25
 70
     0
  3

  4

  5

  6

  7

 40
1.0
 41
2.5
 42
0.625
 43
3.75
 44
1.25
 45
0.0
 46
0.0
 47
0.0
 48
0.0
140
2.5
141
2.5
142
0.0
143
0.03937007874016
144
1.0
145
0.0
146
1.0
147
0.625
 71
     0
 72
     0
 73
     0
 74
     0
 75
     0
 76
     0
 77
     1
 78
     8
170
     0
171
     3
172
     1
173
     0
174
     0
175
     0
176
     0
177
     0
178
     0
270
     2
271
     2
272
     2
273
     2
274
     3
340
11
275
     0
280
     0
281
     0
282
     0
283
     0
284
     8
285
     0
286
     0
287
     3
288
     0
  0
ENDTAB
  0
TABLE
  2
BLOCK_RECORD
  5
1
330
0
100
AcDbSymbolTable
 70
     1
  0
BLOCK_RECORD
  5
1F
330
1
100
AcDbSymbolTableRecord
100
AcDbBlockTableRecord
  2
*MODEL_SPACE
  0
BLOCK_RECORD
  5
1B
330
1
100
AcDbSymbolTableRecord
100
AcDbBlockTableRecord
  2
*PAPER_SPACE
  0
ENDTAB
  0
ENDSEC
  0
SECTION
  2
BLOCKS
  0
BLOCK
  5
20
330
1F
100
AcDbEntity
  8
0
100
AcDbBlockBegin
  2
*MODEL_SPACE
 70
     0
 10
0.0
 20
0.0
 30
0.0
  3
*MODEL_SPACE
  1

  0
ENDBLK
  5
21
330
1F
100
AcDbEntity
  8
0
100
AcDbBlockEnd
  0
BLOCK
  5
1C
330
1B
100
AcDbEntity
 67
     1
  8
0
100
AcDbBlockBegin
  2
*PAPER_SPACE
  1

  0
ENDBLK
  5
1D
330
1B
100
AcDbEntity
 67
     1
  8
0
100
AcDbBlockEnd
  0
ENDSEC
  0
SECTION
  2
ENTITIES
  0
SPLINE
  5
100
100
AcDbEntity
  8
Layer_1
 62
7
100
AcDbSpline
 70
8
 71
3
 72
8
 73
4
 74
0
 40
0
 40
0
 40
0
 40
0
 40
1
 40
1
 40
1
 40
1
 10
20.671197
 20
86.311810
 30
0.0
 10
20.671197
 20
85.900724
 30
0.0
 10
20.507894
 20
85.506476
 30
0.0
 10
20.217213
 20
85.215794
 30
0.0
  0
SPLINE
  5
101
100
AcDbEntity
  8
Layer_1
 62
7
100
AcDbSpline
 70
8
 71
3
 72
8
 73
4
 74
0
 40
0
 40
0
 40
0
 40
0
 40
1
 40
1
 40
1
 40
1
 10
20.217213
 20
85.215794
 30
0.0
 10
19.926531
 20
84.925113
 30
0.0
 10
19.532283
 20
84.761810
 30
0.0
 10
19.121197
 20
84.761810
 30
0.0
  0
SPLINE
  5
102
100
AcDbEntity
  8
Layer_1
 62
7
100
AcDbSpline
 70
8
 71
3
 72
8
 73
4
 74
0
 40
0
 40
0
 40
0
 40
0
 40
1
 40
1
 40
1
 40
1
 10
19.121197
 20
84.761810
 30
0.0
 10
18.710111
 20
84.761810
 30
0.0
 10
18.315863
 20
84.925113
 30
0.0
 10
18.025181
 20
85.215794
 30
0.0
  0
SPLINE
  5
103
100
AcDbEntity
  8
Layer_1
 62
7
100
AcDbSpline
 70
8
 71
3
 72
8
 73
4
 74
0
 40
0
 40
0
 40
0
 40
0
 40
1
 40
1
 40
1
 40
1
 10
18.025181
 20
85.215794
 30
0.0
 10
17.734500
 20
85.506476
 30
0.0
 10
17.571197
 20
85.900724
 30
0.0
 10
17.571197
 20
86.311810
 30
0.0
  0
SPLINE
  5
104
100
AcDbEntity
  8
Layer_1
 62
7
100
AcDbSpline
 70
8
 71
3
 72
8
 73
4
 74
0
 40
0
 40
0
 40
0
 40
0
 40
1
 40
1
 40
1
 40
1
 10
17.571197
 20
86.311810
 30
0.0
 10
17.571197
 20
86.722896
 30
0.0
 10
17.734500
 20
87.117144
 30
0.0
 10
18.025181
 20
87.407826
 30
0.0
  0
SPLINE
  5
105
100
AcDbEntity
  8
Layer_1
 62
7
100
AcDbSpline
 70
8
 71
3
 72
8
 73
4
 74
0
 40
0
 40
0
 40
0
 40
0
 40
1
 40
1
 40
1
 40
1
 10
18.025181
 20
87.407826
 30
0.0
 10
18.315863
 20
87.698507
 30
0.0
 10
18.710111
 20
87.861810
 30
0.0
 10
19.121197
 20
87.861810
 30
0.0
  0
SPLINE
  5
106
100
AcDbEntity
  8
Layer_1
 62
7
100
AcDbSpline
 70
8
 71
3
 72
8
 73
4
 74
0
 40
0
 40
0
 40
0
 40
0
 40
1
 40
1
 40
1
 40
1
 10
19.121197
 20
87.861810
 30
0.0
 10
19.532283
 20
87.861810
 30
0.0
 10
19.926531
 20
87.698507
 30
0.0
 10
20.217213
 20
87.407826
 30
0.0
  0
SPLINE
  5
107
100
AcDbEntity
  8
Layer_1
 62
7
100
AcDbSpline
 70
8
 71
3
 72
8
 73
4
 74
0
 40
0
 40
0
 40
0
 40
0
 40
1
 40
1
 40
1
 40
1
 10
20.217213
 20
87.407826
 30
0.0
 10
20.507894
 20
87.117144
 30
0.0
 10
20.671197
 20
86.722896
 30
0.0
 10
20.671197
 20
86.311810
 30
0.0
  0
SPLINE
  5
108
100
AcDbEntity
  8
Layer_1
 62
7
100
AcDbSpline
 70
8
 71
3
 72
8
 73
4
 74
0
 40
0
 40
0
 40
0
 40
0
 40
1
 40
1
 40
1
 40
1
 10
74.399250
 20
55.311920
 30
0.0
 10
74.399250
 20
54.900834
 30
0.0
 10
74.235947
 20
54.506586
 30
0.0
 10
73.945266
 20
54.215904
 30
0.0
  0
SPLINE
  5
109
100
AcDbEntity
  8
Layer_1
 62
7
100
AcDbSpline
 70
8
 71
3
 72
8
 73
4
 74
0
 40
0
 40
0
 40
0
 40
0
 40
1
 40
1
 40
1
 40
1
 10
73.945266
 20
54.215904
 30
0.0
 10
73.654584
 20
53.925223
 30
0.0
 10
73.260336
 20
53.761920
 30
0.0
 10
72.849250
 20
53.761920
 30
0.0
  0
SPLINE
  5
10a
100
AcDbEntity
  8
Layer_1
 62
7
100
AcDbSpline
 70
8
 71
3
 72
8
 73
4
 74
0
 40
0
 40
0
 40
0
 40
0
 40
1
 40
1
 40
1
 40
1
 10
72.849250
 20
53.761920
 30
0.0
 10
72.438164
 20
53.761920
 30
0.0
 10
72.043916
 20
53.925223
 30
0.0
 10
71.753234
 20
54.215904
 30
0.0
  0
SPLINE
  5
10b
100
AcDbEntity
  8
Layer_1
 62
7
100
AcDbSpline
 70
8
 71
3
 72
8
 73
4
 74
0
 40
0
 40
0
 40
0
 40
0
 40
1
 40
1
 40
1
 40
1
 10
71.753234
 20
54.215904
 30
0.0
 10
71.462553
 20
54.506586
 30
0.0
 10
71.299250
 20
54.900834
 30
0.0
 10
71.299250
 20
55.311920
 30
0.0
  0
SPLINE
  5
10c
100
AcDbEntity
  8
Layer_1
 62
7
100
AcDbSpline
 70
8
 71
3
 72
8
 73
4
 74
0
 40
0
 40
0
 40
0
 40
0
 40
1
 40
1
 40
1
 40
1
 10
71.299250
 20
55.311920
 30
0.0
 10
71.299250
 20
55.723006
 30
0.0
 10
71.462553
 20
56.117254
 30
0.0
 10
71.753234
 20
56.407936
 30
0.0
  0
SPLINE
  5
10d
100
AcDbEntity
  8
Layer_1
 62
7
100
AcDbSpline
 70
8
 71
3
 72
8
 73
4
 74
0
 40
0
 40
0
 40
0
 40
0
 40
1
 40
1
 40
1
 40
1
 10
71.753234
 20
56.407936
 30
0.0
 10
72.043916
 20
56.698617
 30
0.0
 10
72.438164
 20
56.861920
 30
0.0
 10
72.849250
 20
56.861920
 30
0.0
  0
SPLINE
  5
10e
100
AcDbEntity
  8
Layer_1
 62
7
100
AcDbSpline
 70
8
 71
3
 72
8
 73
4
 74
0
 40
0
 40
0
 40
0
 40
0
 40
1
 40
1
 40
1
 40
1
 10
72.849250
 20
56.861920
 30
0.0
 10
73.260336
 20
56.861920
 30
0.0
 10
73.654584
 20
56.698617
 30
0.0
 10
73.945266
 20
56.407936
 30
0.0
  0
SPLINE
  5
10f
100
AcDbEntity
  8
Layer_1
 62
7
100
AcDbSpline
 70
8
 71
3
 72
8
 73
4
 74
0
 40
0
 40
0
 40
0
 40
0
 40
1
 40
1
 40
1
 40
1
 10
73.945266
 20
56.407936
 30
0.0
 10
74.235947
 20
56.117254
 30
0.0
 10
74.399250
 20
55.723006
 30
0.0
 10
74.399250
 20
55.311920
 30
0.0
  0
LWPOLYLINE
  5
110
100
AcDbEntity
  8
Layer_1
 62
7
100
AcDbPolyline
 90
1
 70
1
 10
20.671197
 20
86.311810
 30
0.0
  0
SPLINE
  5
111
100
AcDbEntity
  8
Layer_1
 62
7
100
AcDbSpline
 70
8
 71
3
 72
8
 73
4
 74
0
 40
0
 40
0
 40
0
 40
0
 40
1
 40
1
 40
1
 40
1
 10
26.839212
 20
55.311920
 30
0.0
 10
26.839212
 20
54.900834
 30
0.0
 10
26.675909
 20
54.506586
 30
0.0
 10
26.385228
 20
54.215904
 30
0.0
  0
SPLINE
  5
112
100
AcDbEntity
  8
Layer_1
 62
7
100
AcDbSpline
 70
8
 71
3
 72
8
 73
4
 74
0
 40
0
 40
0
 40
0
 40
0
 40
1
 40
1
 40
1
 40
1
 10
26.385228
 20
54.215904
 30
0.0
 10
26.094546
 20
53.925223
 30
0.0
 10
25.700298
 20
53.761920
 30
0.0
 10
25.289212
 20
53.761920
 30
0.0
  0
SPLINE
  5
113
100
AcDbEntity
  8
Layer_1
 62
7
100
AcDbSpline
 70
8
 71
3
 72
8
 73
4
 74
0
 40
0
 40
0
 40
0
 40
0
 40
1
 40
1
 40
1
 40
1
 10
25.289212
 20
53.761920
 30
0.0
 10
24.878126
 20
53.761920
 30
0.0
 10
24.483878
 20
53.925223
 30
0.0
 10
24.193196
 20
54.215904
 30
0.0
  0
SPLINE
  5
114
100
AcDbEntity
  8
Layer_1
 62
7
100
AcDbSpline
 70
8
 71
3
 72
8
 73
4
 74
0
 40
0
 40
0
 40
0
 40
0
 40
1
 40
1
 40
1
 40
1
 10
24.193196
 20
54.215904
 30
0.0
 10
23.902515
 20
54.506586
 30
0.0
 10
23.739212
 20
54.900834
 30
0.0
 10
23.739212
 20
55.311920
 30
0.0
  0
SPLINE
  5
115
100
AcDbEntity
  8
Layer_1
 62
7
100
AcDbSpline
 70
8
 71
3
 72
8
 73
4
 74
0
 40
0
 40
0
 40
0
 40
0
 40
1
 40
1
 40
1
 40
1
 10
23.739212
 20
55.311920
 30
0.0
 10
23.739212
 20
55.723006
 30
0.0
 10
23.902515
 20
56.117254
 30
0.0
 10
24.193196
 20
56.407936
 30
0.0
  0
SPLINE
  5
116
100
AcDbEntity
  8
Layer_1
 62
7
100
AcDbSpline
 70
8
 71
3
 72
8
 73
4
 74
0
 40
0
 40
0
 40
0
 40
0
 40
1
 40
1
 40
1
 40
1
 10
24.193196
 20
56.407936
 30
0.0
 10
24.483878
 20
56.698617
 30
0.0
 10
24.878126
 20
56.861920
 30
0.0
 10
25.289212
 20
56.861920
 30
0.0
  0
SPLINE
  5
117
100
AcDbEntity
  8
Layer_1
 62
7
100
AcDbSpline
 70
8
 71
3
 72
8
 73
4
 74
0
 40
0
 40
0
 40
0
 40
0
 40
1
 40
1
 40
1
 40
1
 10
25.289212
 20
56.861920
 30
0.0
 10
25.700298
 20
56.861920
 30
0.0
 10
26.094546
 20
56.698617
 30
0.0
 10
26.385228
 20
56.407936
 30
0.0
  0
SPLINE
  5
118
100
AcDbEntity
  8
Layer_1
 62
7
100
AcDbSpline
 70
8
 71
3
 72
8
 73
4
 74
0
 40
0
 40
0
 40
0
 40
0
 40
1
 40
1
 40
1
 40
1
 10
26.385228
 20
56.407936
 30
0.0
 10
26.675909
 20
56.117254
 30
0.0
 10
26.839212
 20
55.723006
 30
0.0
 10
26.839212
 20
55.311920
 30
0.0
  0
LWPOLYLINE
  5
119
100
AcDbEntity
  8
Layer_1
 62
7
100
AcDbPolyline
 90
1
 70
1
 10
74.399250
 20
55.311920
 30
0.0
  0
SPLINE
  5
11a
100
AcDbEntity
  8
Layer_1
 62
7
100
AcDbSpline
 70
8
 71
3
 72
8
 73
4
 74
0
 40
0
 40
0
 40
0
 40
0
 40
1
 40
1
 40
1
 40
1
 10
94.111203
 20
86.311810
 30
0.0
 10
94.111203
 20
85.900724
 30
0.0
 10
93.947900
 20
85.506476
 30
0.0
 10
93.657219
 20
85.215794
 30
0.0
  0
SPLINE
  5
11b
100
AcDbEntity
  8
Layer_1
 62
7
100
AcDbSpline
 70
8
 71
3
 72
8
 73
4
 74
0
 40
0
 40
0
 40
0
 40
0
 40
1
 40
1
 40
1
 40
1
 10
93.657219
 20
85.215794
 30
0.0
 10
93.366537
 20
84.925113
 30
0.0
 10
92.972289
 20
84.761810
 30
0.0
 10
92.561203
 20
84.761810
 30
0.0
  0
SPLINE
  5
11c
100
AcDbEntity
  8
Layer_1
 62
7
100
AcDbSpline
 70
8
 71
3
 72
8
 73
4
 74
0
 40
0
 40
0
 40
0
 40
0
 40
1
 40
1
 40
1
 40
1
 10
92.561203
 20
84.761810
 30
0.0
 10
92.150117
 20
84.761810
 30
0.0
 10
91.755869
 20
84.925113
 30
0.0
 10
91.465187
 20
85.215794
 30
0.0
  0
SPLINE
  5
11d
100
AcDbEntity
  8
Layer_1
 62
7
100
AcDbSpline
 70
8
 71
3
 72
8
 73
4
 74
0
 40
0
 40
0
 40
0
 40
0
 40
1
 40
1
 40
1
 40
1
 10
91.465187
 20
85.215794
 30
0.0
 10
91.174506
 20
85.506476
 30
0.0
 10
91.011203
 20
85.900724
 30
0.0
 10
91.011203
 20
86.311810
 30
0.0
  0
SPLINE
  5
11e
100
AcDbEntity
  8
Layer_1
 62
7
100
AcDbSpline
 70
8
 71
3
 72
8
 73
4
 74
0
 40
0
 40
0
 40
0
 40
0
 40
1
 40
1
 40
1
 40
1
 10
91.011203
 20
86.311810
 30
0.0
 10
91.011203
 20
86.722896
 30
0.0
 10
91.174506
 20
87.117144
 30
0.0
 10
91.465187
 20
87.407826
 30
0.0
  0
SPLINE
  5
11f
100
AcDbEntity
  8
Layer_1
 62
7
100
AcDbSpline
 70
8
 71
3
 72
8
 73
4
 74
0
 40
0
 40
0
 40
0
 40
0
 40
1
 40
1
 40
1
 40
1
 10
91.465187
 20
87.407826
 30
0.0
 10
91.755869
 20
87.698507
 30
0.0
 10
92.150117
 20
87.861810
 30
0.0
 10
92.561203
 20
87.861810
 30
0.0
  0
SPLINE
  5
120
100
AcDbEntity
  8
Layer_1
 62
7
100
AcDbSpline
 70
8
 71
3
 72
8
 73
4
 74
0
 40
0
 40
0
 40
0
 40
0
 40
1
 40
1
 40
1
 40
1
 10
92.561203
 20
87.861810
 30
0.0
 10
92.972289
 20
87.861810
 30
0.0
 10
93.366537
 20
87.698507
 30
0.0
 10
93.657219
 20
87.407826
 30
0.0
  0
SPLINE
  5
121
100
AcDbEntity
  8
Layer_1
 62
7
100
AcDbSpline
 70
8
 71
3
 72
8
 73
4
 74
0
 40
0
 40
0
 40
0
 40
0
 40
1
 40
1
 40
1
 40
1
 10
93.657219
 20
87.407826
 30
0.0
 10
93.947900
 20
87.117144
 30
0.0
 10
94.111203
 20
86.722896
 30
0.0
 10
94.111203
 20
86.311810
 30
0.0
  0
LWPOLYLINE
  5
122
100
AcDbEntity
  8
Layer_1
 62
7
100
AcDbPolyline
 90
1
 70
1
 10
26.839212
 20
55.311920
 30
0.0
  0
LWPOLYLINE
  5
123
100
AcDbEntity
  8
Layer_1
 62
7
100
AcDbPolyline
 90
1
 70
1
 10
94.111203
 20
86.311810
 30
0.0
  0
SPLINE
  5
124
100
AcDbEntity
  8
Layer_1
 62
7
100
AcDbSpline
 70
8
 71
3
 72
8
 73
4
 74
0
 40
0
 40
0
 40
0
 40
0
 40
1
 40
1
 40
1
 40
1
 10
92.501576
 20
147.800200
 30
0.0
 10
94.351727
 20
147.800200
 30
0.0
 10
95.841199
 20
146.310730
 30
0.0
 10
95.841199
 20
144.460580
 30
0.0
  0
LWPOLYLINE
  5
125
100
AcDbEntity
  8
Layer_1
 62
7
100
AcDbPolyline
 90
2
 70
0
 10
19.180822
 20
147.800200
 30
0.0
 10
92.501576
 20
147.800200
 30
0.0
  0
SPLINE
  5
126
100
AcDbEntity
  8
Layer_1
 62
7
100
AcDbSpline
 70
8
 71
3
 72
8
 73
4
 74
0
 40
0
 40
0
 40
0
 40
0
 40
1
 40
1
 40
1
 40
1
 10
95.841199
 20
96.139820
 30
0.0
 10
95.841199
 20
94.289670
 30
0.0
 10
94.351727
 20
92.800200
 30
0.0
 10
92.501576
 20
92.800200
 30
0.0
  0
LWPOLYLINE
  5
127
100
AcDbEntity
  8
Layer_1
 62
7
100
AcDbPolyline
 90
2
 70
0
 10
95.841199
 20
144.460580
 30
0.0
 10
95.841199
 20
96.139820
 30
0.0
  0
SPLINE
  5
128
100
AcDbEntity
  8
Layer_1
 62
7
100
AcDbSpline
 70
8
 71
3
 72
8
 73
4
 74
0
 40
0
 40
0
 40
0
 40
0
 40
1
 40
1
 40
1
 40
1
 10
19.180822
 20
92.800200
 30
0.0
 10
17.330671
 20
92.800200
 30
0.0
 10
15.841199
 20
94.289670
 30
0.0
 10
15.841199
 20
96.139820
 30
0.0
  0
LWPOLYLINE
  5
129
100
AcDbEntity
  8
Layer_1
 62
7
100
AcDbPolyline
 90
2
 70
0
 10
92.501576
 20
92.800200
 30
0.0
 10
19.180822
 20
92.800200
 30
0.0
  0
SPLINE
  5
12a
100
AcDbEntity
  8
Layer_1
 62
7
100
AcDbSpline
 70
8
 71
3
 72
8
 73
4
 74
0
 40
0
 40
0
 40
0
 40
0
 40
1
 40
1
 40
1
 40
1
 10
15.841199
 20
144.460580
 30
0.0
 10
15.841199
 20
146.310730
 30
0.0
 10
17.330671
 20
147.800200
 30
0.0
 10
19.180822
 20
147.800200
 30
0.0
  0
LWPOLYLINE
  5
12b
100
AcDbEntity
  8
Layer_1
 62
7
100
AcDbPolyline
 90
2
 70
0
 10
15.841199
 20
96.139820
 30
0.0
 10
15.841199
 20
144.460580
 30
0.0
  0
SPLINE
  5
12c
100
AcDbEntity
  8
Layer_1
 62
7
100
AcDbSpline
 70
8
 71
3
 72
8
 73
4
 74
0
 40
0
 40
0
 40
0
 40
0
 40
1
 40
1
 40
1
 40
1
 10
20.671197
 20
144.520200
 30
0.0
 10
20.671197
 20
144.109114
 30
0.0
 10
20.507894
 20
143.714866
 30
0.0
 10
20.217213
 20
143.424184
 30
0.0
  0
SPLINE
  5
12d
100
AcDbEntity
  8
Layer_1
 62
7
100
AcDbSpline
 70
8
 71
3
 72
8
 73
4
 74
0
 40
0
 40
0
 40
0
 40
0
 40
1
 40
1
 40
1
 40
1
 10
20.217213
 20
143.424184
 30
0.0
 10
19.926531
 20
143.133503
 30
0.0
 10
19.532283
 20
142.970200
 30
0.0
 10
19.121197
 20
142.970200
 30
0.0
  0
SPLINE
  5
12e
100
AcDbEntity
  8
Layer_1
 62
7
100
AcDbSpline
 70
8
 71
3
 72
8
 73
4
 74
0
 40
0
 40
0
 40
0
 40
0
 40
1
 40
1
 40
1
 40
1
 10
19.121197
 20
142.970200
 30
0.0
 10
18.710111
 20
142.970200
 30
0.0
 10
18.315863
 20
143.133503
 30
0.0
 10
18.025181
 20
143.424184
 30
0.0
  0
SPLINE
  5
12f
100
AcDbEntity
  8
Layer_1
 62
7
100
AcDbSpline
 70
8
 71
3
 72
8
 73
4
 74
0
 40
0
 40
0
 40
0
 40
0
 40
1
 40
1
 40
1
 40
1
 10
18.025181
 20
143.424184
 30
0.0
 10
17.734500
 20
143.714866
 30
0.0
 10
17.571197
 20
144.109114
 30
0.0
 10
17.571197
 20
144.520200
 30
0.0
  0
SPLINE
  5
130
100
AcDbEntity
  8
Layer_1
 62
7
100
AcDbSpline
 70
8
 71
3
 72
8
 73
4
 74
0
 40
0
 40
0
 40
0
 40
0
 40
1
 40
1
 40
1
 40
1
 10
17.571197
 20
144.520200
 30
0.0
 10
17.571197
 20
144.931286
 30
0.0
 10
17.734500
 20
145.325534
 30
0.0
 10
18.025181
 20
145.616216
 30
0.0
  0
SPLINE
  5
131
100
AcDbEntity
  8
Layer_1
 62
7
100
AcDbSpline
 70
8
 71
3
 72
8
 73
4
 74
0
 40
0
 40
0
 40
0
 40
0
 40
1
 40
1
 40
1
 40
1
 10
18.025181
 20
145.616216
 30
0.0
 10
18.315863
 20
145.906897
 30
0.0
 10
18.710111
 20
146.070200
 30
0.0
 10
19.121197
 20
146.070200
 30
0.0
  0
SPLINE
  5
132
100
AcDbEntity
  8
Layer_1
 62
7
100
AcDbSpline
 70
8
 71
3
 72
8
 73
4
 74
0
 40
0
 40
0
 40
0
 40
0
 40
1
 40
1
 40
1
 40
1
 10
19.121197
 20
146.070200
 30
0.0
 10
19.532283
 20
146.070200
 30
0.0
 10
19.926531
 20
145.906897
 30
0.0
 10
20.217213
 20
145.616216
 30
0.0
  0
SPLINE
  5
133
100
AcDbEntity
  8
Layer_1
 62
7
100
AcDbSpline
 70
8
 71
3
 72
8
 73
4
 74
0
 40
0
 40
0
 40
0
 40
0
 40
1
 40
1
 40
1
 40
1
 10
20.217213
 20
145.616216
 30
0.0
 10
20.507894
 20
145.325534
 30
0.0
 10
20.671197
 20
144.931286
 30
0.0
 10
20.671197
 20
144.520200
 30
0.0
  0
LWPOLYLINE
  5
134
100
AcDbEntity
  8
Layer_1
 62
7
100
AcDbPolyline
 90
1
 70
1
 10
19.180822
 20
147.800200
 30
0.0
  0
SPLINE
  5
135
100
AcDbEntity
  8
Layer_1
 62
7
100
AcDbSpline
 70
8
 71
3
 72
8
 73
4
 74
0
 40
0
 40
0
 40
0
 40
0
 40
1
 40
1
 40
1
 40
1
 10
94.111203
 20
96.080180
 30
0.0
 10
94.111203
 20
95.669094
 30
0.0
 10
93.947900
 20
95.274846
 30
0.0
 10
93.657219
 20
94.984164
 30
0.0
  0
SPLINE
  5
136
100
AcDbEntity
  8
Layer_1
 62
7
100
AcDbSpline
 70
8
 71
3
 72
8
 73
4
 74
0
 40
0
 40
0
 40
0
 40
0
 40
1
 40
1
 40
1
 40
1
 10
93.657219
 20
94.984164
 30
0.0
 10
93.366537
 20
94.693483
 30
0.0
 10
92.972289
 20
94.530180
 30
0.0
 10
92.561203
 20
94.530180
 30
0.0
  0
SPLINE
  5
137
100
AcDbEntity
  8
Layer_1
 62
7
100
AcDbSpline
 70
8
 71
3
 72
8
 73
4
 74
0
 40
0
 40
0
 40
0
 40
0
 40
1
 40
1
 40
1
 40
1
 10
92.561203
 20
94.530180
 30
0.0
 10
92.150117
 20
94.530180
 30
0.0
 10
91.755869
 20
94.693483
 30
0.0
 10
91.465187
 20
94.984164
 30
0.0
  0
SPLINE
  5
138
100
AcDbEntity
  8
Layer_1
 62
7
100
AcDbSpline
 70
8
 71
3
 72
8
 73
4
 74
0
 40
0
 40
0
 40
0
 40
0
 40
1
 40
1
 40
1
 40
1
 10
91.465187
 20
94.984164
 30
0.0
 10
91.174506
 20
95.274846
 30
0.0
 10
91.011203
 20
95.669094
 30
0.0
 10
91.011203
 20
96.080180
 30
0.0
  0
SPLINE
  5
139
100
AcDbEntity
  8
Layer_1
 62
7
100
AcDbSpline
 70
8
 71
3
 72
8
 73
4
 74
0
 40
0
 40
0
 40
0
 40
0
 40
1
 40
1
 40
1
 40
1
 10
91.011203
 20
96.080180
 30
0.0
 10
91.011203
 20
96.491266
 30
0.0
 10
91.174506
 20
96.885514
 30
0.0
 10
91.465187
 20
97.176196
 30
0.0
  0
SPLINE
  5
13a
100
AcDbEntity
  8
Layer_1
 62
7
100
AcDbSpline
 70
8
 71
3
 72
8
 73
4
 74
0
 40
0
 40
0
 40
0
 40
0
 40
1
 40
1
 40
1
 40
1
 10
91.465187
 20
97.176196
 30
0.0
 10
91.755869
 20
97.466877
 30
0.0
 10
92.150117
 20
97.630180
 30
0.0
 10
92.561203
 20
97.630180
 30
0.0
  0
SPLINE
  5
13b
100
AcDbEntity
  8
Layer_1
 62
7
100
AcDbSpline
 70
8
 71
3
 72
8
 73
4
 74
0
 40
0
 40
0
 40
0
 40
0
 40
1
 40
1
 40
1
 40
1
 10
92.561203
 20
97.630180
 30
0.0
 10
92.972289
 20
97.630180
 30
0.0
 10
93.366537
 20
97.466877
 30
0.0
 10
93.657219
 20
97.176196
 30
0.0
  0
SPLINE
  5
13c
100
AcDbEntity
  8
Layer_1
 62
7
100
AcDbSpline
 70
8
 71
3
 72
8
 73
4
 74
0
 40
0
 40
0
 40
0
 40
0
 40
1
 40
1
 40
1
 40
1
 10
93.657219
 20
97.176196
 30
0.0
 10
93.947900
 20
96.885514
 30
0.0
 10
94.111203
 20
96.491266
 30
0.0
 10
94.111203
 20
96.080180
 30
0.0
  0
LWPOLYLINE
  5
13d
100
AcDbEntity
  8
Layer_1
 62
7
100
AcDbPolyline
 90
1
 70
1
 10
20.671197
 20
144.520200
 30
0.0
  0
SPLINE
  5
13e
100
AcDbEntity
  8
Layer_1
 62
7
100
AcDbSpline
 70
8
 71
3
 72
8
 73
4
 74
0
 40
0
 40
0
 40
0
 40
0
 40
1
 40
1
 40
1
 40
1
 10
20.671199
 20
96.080180
 30
0.0
 10
20.671199
 20
95.669094
 30
0.0
 10
20.507896
 20
95.274846
 30
0.0
 10
20.217215
 20
94.984164
 30
0.0
  0
SPLINE
  5
13f
100
AcDbEntity
  8
Layer_1
 62
7
100
AcDbSpline
 70
8
 71
3
 72
8
 73
4
 74
0
 40
0
 40
0
 40
0
 40
0
 40
1
 40
1
 40
1
 40
1
 10
20.217215
 20
94.984164
 30
0.0
 10
19.926533
 20
94.693483
 30
0.0
 10
19.532285
 20
94.530180
 30
0.0
 10
19.121199
 20
94.530180
 30
0.0
  0
SPLINE
  5
140
100
AcDbEntity
  8
Layer_1
 62
7
100
AcDbSpline
 70
8
 71
3
 72
8
 73
4
 74
0
 40
0
 40
0
 40
0
 40
0
 40
1
 40
1
 40
1
 40
1
 10
19.121199
 20
94.530180
 30
0.0
 10
18.710113
 20
94.530180
 30
0.0
 10
18.315865
 20
94.693483
 30
0.0
 10
18.025183
 20
94.984164
 30
0.0
  0
SPLINE
  5
141
100
AcDbEntity
  8
Layer_1
 62
7
100
AcDbSpline
 70
8
 71
3
 72
8
 73
4
 74
0
 40
0
 40
0
 40
0
 40
0
 40
1
 40
1
 40
1
 40
1
 10
18.025183
 20
94.984164
 30
0.0
 10
17.734502
 20
95.274846
 30
0.0
 10
17.571199
 20
95.669094
 30
0.0
 10
17.571199
 20
96.080180
 30
0.0
  0
SPLINE
  5
142
100
AcDbEntity
  8
Layer_1
 62
7
100
AcDbSpline
 70
8
 71
3
 72
8
 73
4
 74
0
 40
0
 40
0
 40
0
 40
0
 40
1
 40
1
 40
1
 40
1
 10
17.571199
 20
96.080180
 30
0.0
 10
17.571199
 20
96.491266
 30
0.0
 10
17.734502
 20
96.885514
 30
0.0
 10
18.025183
 20
97.176196
 30
0.0
  0
SPLINE
  5
143
100
AcDbEntity
  8
Layer_1
 62
7
100
AcDbSpline
 70
8
 71
3
 72
8
 73
4
 74
0
 40
0
 40
0
 40
0
 40
0
 40
1
 40
1
 40
1
 40
1
 10
18.025183
 20
97.176196
 30
0.0
 10
18.315865
 20
97.466877
 30
0.0
 10
18.710113
 20
97.630180
 30
0.0
 10
19.121199
 20
97.630180
 30
0.0
  0
SPLINE
  5
144
100
AcDbEntity
  8
Layer_1
 62
7
100
AcDbSpline
 70
8
 71
3
 72
8
 73
4
 74
0
 40
0
 40
0
 40
0
 40
0
 40
1
 40
1
 40
1
 40
1
 10
19.121199
 20
97.630180
 30
0.0
 10
19.532285
 20
97.630180
 30
0.0
 10
19.926533
 20
97.466877
 30
0.0
 10
20.217215
 20
97.176196
 30
0.0
  0
SPLINE
  5
145
100
AcDbEntity
  8
Layer_1
 62
7
100
AcDbSpline
 70
8
 71
3
 72
8
 73
4
 74
0
 40
0
 40
0
 40
0
 40
0
 40
1
 40
1
 40
1
 40
1
 10
20.217215
 20
97.176196
 30
0.0
 10
20.507896
 20
96.885514
 30
0.0
 10
20.671199
 20
96.491266
 30
0.0
 10
20.671199
 20
96.080180
 30
0.0
  0
LWPOLYLINE
  5
146
100
AcDbEntity
  8
Layer_1
 62
7
100
AcDbPolyline
 90
1
 70
1
 10
94.111203
 20
96.080180
 30
0.0
  0
SPLINE
  5
147
100
AcDbEntity
  8
Layer_1
 62
7
100
AcDbSpline
 70
8
 71
3
 72
8
 73
4
 74
0
 40
0
 40
0
 40
0
 40
0
 40
1
 40
1
 40
1
 40
1
 10
94.111203
 20
144.520200
 30
0.0
 10
94.111203
 20
144.109114
 30
0.0
 10
93.947900
 20
143.714866
 30
0.0
 10
93.657219
 20
143.424184
 30
0.0
  0
SPLINE
  5
148
100
AcDbEntity
  8
Layer_1
 62
7
100
AcDbSpline
 70
8
 71
3
 72
8
 73
4
 74
0
 40
0
 40
0
 40
0
 40
0
 40
1
 40
1
 40
1
 40
1
 10
93.657219
 20
143.424184
 30
0.0
 10
93.366537
 20
143.133503
 30
0.0
 10
92.972289
 20
142.970200
 30
0.0
 10
92.561203
 20
142.970200
 30
0.0
  0
SPLINE
  5
149
100
AcDbEntity
  8
Layer_1
 62
7
100
AcDbSpline
 70
8
 71
3
 72
8
 73
4
 74
0
 40
0
 40
0
 40
0
 40
0
 40
1
 40
1
 40
1
 40
1
 10
92.561203
 20
142.970200
 30
0.0
 10
92.150117
 20
142.970200
 30
0.0
 10
91.755869
 20
143.133503
 30
0.0
 10
91.465187
 20
143.424184
 30
0.0
  0
SPLINE
  5
14a
100
AcDbEntity
  8
Layer_1
 62
7
100
AcDbSpline
 70
8
 71
3
 72
8
 73
4
 74
0
 40
0
 40
0
 40
0
 40
0
 40
1
 40
1
 40
1
 40
1
 10
91.465187
 20
143.424184
 30
0.0
 10
91.174506
 20
143.714866
 30
0.0
 10
91.011203
 20
144.109114
 30
0.0
 10
91.011203
 20
144.520200
 30
0.0
  0
SPLINE
  5
14b
100
AcDbEntity
  8
Layer_1
 62
7
100
AcDbSpline
 70
8
 71
3
 72
8
 73
4
 74
0
 40
0
 40
0
 40
0
 40
0
 40
1
 40
1
 40
1
 40
1
 10
91.011203
 20
144.520200
 30
0.0
 10
91.011203
 20
144.931286
 30
0.0
 10
91.174506
 20
145.325534
 30
0.0
 10
91.465187
 20
145.616216
 30
0.0
  0
SPLINE
  5
14c
100
AcDbEntity
  8
Layer_1
 62
7
100
AcDbSpline
 70
8
 71
3
 72
8
 73
4
 74
0
 40
0
 40
0
 40
0
 40
0
 40
1
 40
1
 40
1
 40
1
 10
91.465187
 20
145.616216
 30
0.0
 10
91.755869
 20
145.906897
 30
0.0
 10
92.150117
 20
146.070200
 30
0.0
 10
92.561203
 20
146.070200
 30
0.0
  0
SPLINE
  5
14d
100
AcDbEntity
  8
Layer_1
 62
7
100
AcDbSpline
 70
8
 71
3
 72
8
 73
4
 74
0
 40
0
 40
0
 40
0
 40
0
 40
1
 40
1
 40
1
 40
1
 10
92.561203
 20
146.070200
 30
0.0
 10
92.972289
 20
146.070200
 30
0.0
 10
93.366537
 20
145.906897
 30
0.0
 10
93.657219
 20
145.616216
 30
0.0
  0
SPLINE
  5
14e
100
AcDbEntity
  8
Layer_1
 62
7
100
AcDbSpline
 70
8
 71
3
 72
8
 73
4
 74
0
 40
0
 40
0
 40
0
 40
0
 40
1
 40
1
 40
1
 40
1
 10
93.657219
 20
145.616216
 30
0.0
 10
93.947900
 20
145.325534
 30
0.0
 10
94.111203
 20
144.931286
 30
0.0
 10
94.111203
 20
144.520200
 30
0.0
  0
LWPOLYLINE
  5
14f
100
AcDbEntity
  8
Layer_1
 62
7
100
AcDbPolyline
 90
1
 70
1
 10
20.671199
 20
96.080180
 30
0.0
  0
SPLINE
  5
150
100
AcDbEntity
  8
Layer_1
 62
7
100
AcDbSpline
 70
8
 71
3
 72
8
 73
4
 74
0
 40
0
 40
0
 40
0
 40
0
 40
1
 40
1
 40
1
 40
1
 10
81.365000
 20
105.306340
 30
0.0
 10
81.365000
 20
103.715041
 30
0.0
 10
80.732859
 20
102.188918
 30
0.0
 10
79.607641
 20
101.063699
 30
0.0
  0
SPLINE
  5
151
100
AcDbEntity
  8
Layer_1
 62
7
100
AcDbSpline
 70
8
 71
3
 72
8
 73
4
 74
0
 40
0
 40
0
 40
0
 40
0
 40
1
 40
1
 40
1
 40
1
 10
79.607641
 20
101.063699
 30
0.0
 10
78.482422
 20
99.938481
 30
0.0
 10
76.956299
 20
99.306340
 30
0.0
 10
75.365000
 20
99.306340
 30
0.0
  0
SPLINE
  5
152
100
AcDbEntity
  8
Layer_1
 62
7
100
AcDbSpline
 70
8
 71
3
 72
8
 73
4
 74
0
 40
0
 40
0
 40
0
 40
0
 40
1
 40
1
 40
1
 40
1
 10
75.365000
 20
99.306340
 30
0.0
 10
72.051292
 20
99.306340
 30
0.0
 10
69.365000
 20
101.992632
 30
0.0
 10
69.365000
 20
105.306340
 30
0.0
  0
SPLINE
  5
153
100
AcDbEntity
  8
Layer_1
 62
7
100
AcDbSpline
 70
8
 71
3
 72
8
 73
4
 74
0
 40
0
 40
0
 40
0
 40
0
 40
1
 40
1
 40
1
 40
1
 10
69.365000
 20
105.306340
 30
0.0
 10
69.365000
 20
106.897639
 30
0.0
 10
69.997141
 20
108.423762
 30
0.0
 10
71.122359
 20
109.548981
 30
0.0
  0
SPLINE
  5
154
100
AcDbEntity
  8
Layer_1
 62
7
100
AcDbSpline
 70
8
 71
3
 72
8
 73
4
 74
0
 40
0
 40
0
 40
0
 40
0
 40
1
 40
1
 40
1
 40
1
 10
71.122359
 20
109.548981
 30
0.0
 10
72.247578
 20
110.674199
 30
0.0
 10
73.773701
 20
111.306340
 30
0.0
 10
75.365000
 20
111.306340
 30
0.0
  0
SPLINE
  5
155
100
AcDbEntity
  8
Layer_1
 62
7
100
AcDbSpline
 70
8
 71
3
 72
8
 73
4
 74
0
 40
0
 40
0
 40
0
 40
0
 40
1
 40
1
 40
1
 40
1
 10
75.365000
 20
111.306340
 30
0.0
 10
76.956299
 20
111.306340
 30
0.0
 10
78.482422
 20
110.674199
 30
0.0
 10
79.607641
 20
109.548981
 30
0.0
  0
SPLINE
  5
156
100
AcDbEntity
  8
Layer_1
 62
7
100
AcDbSpline
 70
8
 71
3
 72
8
 73
4
 74
0
 40
0
 40
0
 40
0
 40
0
 40
1
 40
1
 40
1
 40
1
 10
79.607641
 20
109.548981
 30
0.0
 10
80.732859
 20
108.423762
 30
0.0
 10
81.365000
 20
106.897639
 30
0.0
 10
81.365000
 20
105.306340
 30
0.0
  0
LWPOLYLINE
  5
157
100
AcDbEntity
  8
Layer_1
 62
7
100
AcDbPolyline
 90
1
 70
1
 10
94.111203
 20
144.520200
 30
0.0
  0
SPLINE
  5
158
100
AcDbEntity
  8
Layer_1
 62
7
100
AcDbSpline
 70
8
 71
3
 72
8
 73
4
 74
0
 40
0
 40
0
 40
0
 40
0
 40
1
 40
1
 40
1
 40
1
 10
20.671189
 20
239.069588
 30
0.0
 10
20.671189
 20
238.658502
 30
0.0
 10
20.507886
 20
238.264254
 30
0.0
 10
20.217205
 20
237.973572
 30
0.0
  0
SPLINE
  5
159
100
AcDbEntity
  8
Layer_1
 62
7
100
AcDbSpline
 70
8
 71
3
 72
8
 73
4
 74
0
 40
0
 40
0
 40
0
 40
0
 40
1
 40
1
 40
1
 40
1
 10
20.217205
 20
237.973572
 30
0.0
 10
19.926523
 20
237.682891
 30
0.0
 10
19.532275
 20
237.519588
 30
0.0
 10
19.121189
 20
237.519588
 30
0.0
  0
SPLINE
  5
15a
100
AcDbEntity
  8
Layer_1
 62
7
100
AcDbSpline
 70
8
 71
3
 72
8
 73
4
 74
0
 40
0
 40
0
 40
0
 40
0
 40
1
 40
1
 40
1
 40
1
 10
19.121189
 20
237.519588
 30
0.0
 10
18.710103
 20
237.519588
 30
0.0
 10
18.315855
 20
237.682891
 30
0.0
 10
18.025173
 20
237.973572
 30
0.0
  0
SPLINE
  5
15b
100
AcDbEntity
  8
Layer_1
 62
7
100
AcDbSpline
 70
8
 71
3
 72
8
 73
4
 74
0
 40
0
 40
0
 40
0
 40
0
 40
1
 40
1
 40
1
 40
1
 10
18.025173
 20
237.973572
 30
0.0
 10
17.734492
 20
238.264254
 30
0.0
 10
17.571189
 20
238.658502
 30
0.0
 10
17.571189
 20
239.069588
 30
0.0
  0
SPLINE
  5
15c
100
AcDbEntity
  8
Layer_1
 62
7
100
AcDbSpline
 70
8
 71
3
 72
8
 73
4
 74
0
 40
0
 40
0
 40
0
 40
0
 40
1
 40
1
 40
1
 40
1
 10
17.571189
 20
239.069588
 30
0.0
 10
17.571189
 20
239.480674
 30
0.0
 10
17.734492
 20
239.874922
 30
0.0
 10
18.025173
 20
240.165604
 30
0.0
  0
SPLINE
  5
15d
100
AcDbEntity
  8
Layer_1
 62
7
100
AcDbSpline
 70
8
 71
3
 72
8
 73
4
 74
0
 40
0
 40
0
 40
0
 40
0
 40
1
 40
1
 40
1
 40
1
 10
18.025173
 20
240.165604
 30
0.0
 10
18.315855
 20
240.456285
 30
0.0
 10
18.710103
 20
240.619588
 30
0.0
 10
19.121189
 20
240.619588
 30
0.0
  0
SPLINE
  5
15e
100
AcDbEntity
  8
Layer_1
 62
7
100
AcDbSpline
 70
8
 71
3
 72
8
 73
4
 74
0
 40
0
 40
0
 40
0
 40
0
 40
1
 40
1
 40
1
 40
1
 10
19.121189
 20
240.619588
 30
0.0
 10
19.532275
 20
240.619588
 30
0.0
 10
19.926523
 20
240.456285
 30
0.0
 10
20.217205
 20
240.165604
 30
0.0
  0
SPLINE
  5
15f
100
AcDbEntity
  8
Layer_1
 62
7
100
AcDbSpline
 70
8
 71
3
 72
8
 73
4
 74
0
 40
0
 40
0
 40
0
 40
0
 40
1
 40
1
 40
1
 40
1
 10
20.217205
 20
240.165604
 30
0.0
 10
20.507886
 20
239.874922
 30
0.0
 10
20.671189
 20
239.480674
 30
0.0
 10
20.671189
 20
239.069588
 30
0.0
  0
LWPOLYLINE
  5
160
100
AcDbEntity
  8
Layer_1
 62
7
100
AcDbPolyline
 90
1
 70
1
 10
81.365000
 20
105.306340
 30
0.0
  0
SPLINE
  5
161
100
AcDbEntity
  8
Layer_1
 62
7
100
AcDbSpline
 70
8
 71
3
 72
8
 73
4
 74
0
 40
0
 40
0
 40
0
 40
0
 40
1
 40
1
 40
1
 40
1
 10
68.231239
 20
239.069588
 30
0.0
 10
68.231239
 20
238.658502
 30
0.0
 10
68.067936
 20
238.264254
 30
0.0
 10
67.777255
 20
237.973572
 30
0.0
  0
SPLINE
  5
162
100
AcDbEntity
  8
Layer_1
 62
7
100
AcDbSpline
 70
8
 71
3
 72
8
 73
4
 74
0
 40
0
 40
0
 40
0
 40
0
 40
1
 40
1
 40
1
 40
1
 10
67.777255
 20
237.973572
 30
0.0
 10
67.486573
 20
237.682891
 30
0.0
 10
67.092325
 20
237.519588
 30
0.0
 10
66.681239
 20
237.519588
 30
0.0
  0
SPLINE
  5
163
100
AcDbEntity
  8
Layer_1
 62
7
100
AcDbSpline
 70
8
 71
3
 72
8
 73
4
 74
0
 40
0
 40
0
 40
0
 40
0
 40
1
 40
1
 40
1
 40
1
 10
66.681239
 20
237.519588
 30
0.0
 10
65.825198
 20
237.519588
 30
0.0
 10
65.131239
 20
238.213547
 30
0.0
 10
65.131239
 20
239.069588
 30
0.0
  0
SPLINE
  5
164
100
AcDbEntity
  8
Layer_1
 62
7
100
AcDbSpline
 70
8
 71
3
 72
8
 73
4
 74
0
 40
0
 40
0
 40
0
 40
0
 40
1
 40
1
 40
1
 40
1
 10
65.131239
 20
239.069588
 30
0.0
 10
65.131239
 20
239.925629
 30
0.0
 10
65.825198
 20
240.619588
 30
0.0
 10
66.681239
 20
240.619588
 30
0.0
  0
SPLINE
  5
165
100
AcDbEntity
  8
Layer_1
 62
7
100
AcDbSpline
 70
8
 71
3
 72
8
 73
4
 74
0
 40
0
 40
0
 40
0
 40
0
 40
1
 40
1
 40
1
 40
1
 10
66.681239
 20
240.619588
 30
0.0
 10
67.092325
 20
240.619588
 30
0.0
 10
67.486573
 20
240.456285
 30
0.0
 10
67.777255
 20
240.165604
 30
0.0
  0
SPLINE
  5
166
100
AcDbEntity
  8
Layer_1
 62
7
100
AcDbSpline
 70
8
 71
3
 72
8
 73
4
 74
0
 40
0
 40
0
 40
0
 40
0
 40
1
 40
1
 40
1
 40
1
 10
67.777255
 20
240.165604
 30
0.0
 10
68.067936
 20
239.874922
 30
0.0
 10
68.231239
 20
239.480674
 30
0.0
 10
68.231239
 20
239.069588
 30
0.0
  0
LWPOLYLINE
  5
167
100
AcDbEntity
  8
Layer_1
 62
7
100
AcDbPolyline
 90
1
 70
1
 10
20.671189
 20
239.069588
 30
0.0
  0
SPLINE
  5
168
100
AcDbEntity
  8
Layer_1
 62
7
100
AcDbSpline
 70
8
 71
3
 72
8
 73
4
 74
0
 40
0
 40
0
 40
0
 40
0
 40
1
 40
1
 40
1
 40
1
 10
68.231239
 20
229.509668
 30
0.0
 10
68.231239
 20
229.098582
 30
0.0
 10
68.067936
 20
228.704334
 30
0.0
 10
67.777255
 20
228.413652
 30
0.0
  0
SPLINE
  5
169
100
AcDbEntity
  8
Layer_1
 62
7
100
AcDbSpline
 70
8
 71
3
 72
8
 73
4
 74
0
 40
0
 40
0
 40
0
 40
0
 40
1
 40
1
 40
1
 40
1
 10
67.777255
 20
228.413652
 30
0.0
 10
67.486573
 20
228.122971
 30
0.0
 10
67.092325
 20
227.959668
 30
0.0
 10
66.681239
 20
227.959668
 30
0.0
  0
SPLINE
  5
16a
100
AcDbEntity
  8
Layer_1
 62
7
100
AcDbSpline
 70
8
 71
3
 72
8
 73
4
 74
0
 40
0
 40
0
 40
0
 40
0
 40
1
 40
1
 40
1
 40
1
 10
66.681239
 20
227.959668
 30
0.0
 10
65.825198
 20
227.959668
 30
0.0
 10
65.131239
 20
228.653627
 30
0.0
 10
65.131239
 20
229.509668
 30
0.0
  0
SPLINE
  5
16b
100
AcDbEntity
  8
Layer_1
 62
7
100
AcDbSpline
 70
8
 71
3
 72
8
 73
4
 74
0
 40
0
 40
0
 40
0
 40
0
 40
1
 40
1
 40
1
 40
1
 10
65.131239
 20
229.509668
 30
0.0
 10
65.131239
 20
230.365709
 30
0.0
 10
65.825198
 20
231.059668
 30
0.0
 10
66.681239
 20
231.059668
 30
0.0
  0
SPLINE
  5
16c
100
AcDbEntity
  8
Layer_1
 62
7
100
AcDbSpline
 70
8
 71
3
 72
8
 73
4
 74
0
 40
0
 40
0
 40
0
 40
0
 40
1
 40
1
 40
1
 40
1
 10
66.681239
 20
231.059668
 30
0.0
 10
67.092325
 20
231.059668
 30
0.0
 10
67.486573
 20
230.896365
 30
0.0
 10
67.777255
 20
230.605684
 30
0.0
  0
SPLINE
  5
16d
100
AcDbEntity
  8
Layer_1
 62
7
100
AcDbSpline
 70
8
 71
3
 72
8
 73
4
 74
0
 40
0
 40
0
 40
0
 40
0
 40
1
 40
1
 40
1
 40
1
 10
67.777255
 20
230.605684
 30
0.0
 10
68.067936
 20
230.315002
 30
0.0
 10
68.231239
 20
229.920754
 30
0.0
 10
68.231239
 20
229.509668
 30
0.0
  0
LWPOLYLINE
  5
16e
100
AcDbEntity
  8
Layer_1
 62
7
100
AcDbPolyline
 90
1
 70
1
 10
68.231239
 20
239.069588
 30
0.0
  0
SPLINE
  5
16f
100
AcDbEntity
  8
Layer_1
 62
7
100
AcDbSpline
 70
8
 71
3
 72
8
 73
4
 74
0
 40
0
 40
0
 40
0
 40
0
 40
1
 40
1
 40
1
 40
1
 10
20.671189
 20
229.509668
 30
0.0
 10
20.671189
 20
229.098582
 30
0.0
 10
20.507886
 20
228.704334
 30
0.0
 10
20.217205
 20
228.413652
 30
0.0
  0
SPLINE
  5
170
100
AcDbEntity
  8
Layer_1
 62
7
100
AcDbSpline
 70
8
 71
3
 72
8
 73
4
 74
0
 40
0
 40
0
 40
0
 40
0
 40
1
 40
1
 40
1
 40
1
 10
20.217205
 20
228.413652
 30
0.0
 10
19.926523
 20
228.122971
 30
0.0
 10
19.532275
 20
227.959668
 30
0.0
 10
19.121189
 20
227.959668
 30
0.0
  0
SPLINE
  5
171
100
AcDbEntity
  8
Layer_1
 62
7
100
AcDbSpline
 70
8
 71
3
 72
8
 73
4
 74
0
 40
0
 40
0
 40
0
 40
0
 40
1
 40
1
 40
1
 40
1
 10
19.121189
 20
227.959668
 30
0.0
 10
18.710103
 20
227.959668
 30
0.0
 10
18.315855
 20
228.122971
 30
0.0
 10
18.025173
 20
228.413652
 30
0.0
  0
SPLINE
  5
172
100
AcDbEntity
  8
Layer_1
 62
7
100
AcDbSpline
 70
8
 71
3
 72
8
 73
4
 74
0
 40
0
 40
0
 40
0
 40
0
 40
1
 40
1
 40
1
 40
1
 10
18.025173
 20
228.413652
 30
0.0
 10
17.734492
 20
228.704334
 30
0.0
 10
17.571189
 20
229.098582
 30
0.0
 10
17.571189
 20
229.509668
 30
0.0
  0
SPLINE
  5
173
100
AcDbEntity
  8
Layer_1
 62
7
100
AcDbSpline
 70
8
 71
3
 72
8
 73
4
 74
0
 40
0
 40
0
 40
0
 40
0
 40
1
 40
1
 40
1
 40
1
 10
17.571189
 20
229.509668
 30
0.0
 10
17.571189
 20
229.920754
 30
0.0
 10
17.734492
 20
230.315002
 30
0.0
 10
18.025173
 20
230.605684
 30
0.0
  0
SPLINE
  5
174
100
AcDbEntity
  8
Layer_1
 62
7
100
AcDbSpline
 70
8
 71
3
 72
8
 73
4
 74
0
 40
0
 40
0
 40
0
 40
0
 40
1
 40
1
 40
1
 40
1
 10
18.025173
 20
230.605684
 30
0.0
 10
18.315855
 20
230.896365
 30
0.0
 10
18.710103
 20
231.059668
 30
0.0
 10
19.121189
 20
231.059668
 30
0.0
  0
SPLINE
  5
175
100
AcDbEntity
  8
Layer_1
 62
7
100
AcDbSpline
 70
8
 71
3
 72
8
 73
4
 74
0
 40
0
 40
0
 40
0
 40
0
 40
1
 40
1
 40
1
 40
1
 10
19.121189
 20
231.059668
 30
0.0
 10
19.532275
 20
231.059668
 30
0.0
 10
19.926523
 20
230.896365
 30
0.0
 10
20.217205
 20
230.605684
 30
0.0
  0
SPLINE
  5
176
100
AcDbEntity
  8
Layer_1
 62
7
100
AcDbSpline
 70
8
 71
3
 72
8
 73
4
 74
0
 40
0
 40
0
 40
0
 40
0
 40
1
 40
1
 40
1
 40
1
 10
20.217205
 20
230.605684
 30
0.0
 10
20.507886
 20
230.315002
 30
0.0
 10
20.671189
 20
229.920754
 30
0.0
 10
20.671189
 20
229.509668
 30
0.0
  0
LWPOLYLINE
  5
177
100
AcDbEntity
  8
Layer_1
 62
7
100
AcDbPolyline
 90
1
 70
1
 10
68.231239
 20
229.509668
 30
0.0
  0
LWPOLYLINE
  5
178
100
AcDbEntity
  8
Layer_1
 62
7
100
AcDbPolyline
 90
1
 70
1
 10
20.671189
 20
229.509668
 30
0.0
  0
SPLINE
  5
179
100
AcDbEntity
  8
Layer_1
 62
7
100
AcDbSpline
 70
8
 71
3
 72
8
 73
4
 74
0
 40
0
 40
0
 40
0
 40
0
 40
1
 40
1
 40
1
 40
1
 10
66.961249
 20
242.259598
 30
0.0
 10
68.623249
 20
242.259598
 30
0.0
 10
69.961249
 20
240.921598
 30
0.0
 10
69.961249
 20
239.259598
 30
0.0
  0
LWPOLYLINE
  5
17a
100
AcDbEntity
  8
Layer_1
 62
7
100
AcDbPolyline
 90
2
 70
0
 10
18.841199
 20
242.259598
 30
0.0
 10
66.961249
 20
242.259598
 30
0.0
  0
SPLINE
  5
17b
100
AcDbEntity
  8
Layer_1
 62
7
100
AcDbSpline
 70
8
 71
3
 72
8
 73
4
 74
0
 40
0
 40
0
 40
0
 40
0
 40
1
 40
1
 40
1
 40
1
 10
69.961249
 20
229.229688
 30
0.0
 10
69.961249
 20
227.567688
 30
0.0
 10
68.623249
 20
226.229688
 30
0.0
 10
66.961249
 20
226.229688
 30
0.0
  0
LWPOLYLINE
  5
17c
100
AcDbEntity
  8
Layer_1
 62
7
100
AcDbPolyline
 90
2
 70
0
 10
69.961249
 20
239.259598
 30
0.0
 10
69.961249
 20
229.229688
 30
0.0
  0
SPLINE
  5
17d
100
AcDbEntity
  8
Layer_1
 62
7
100
AcDbSpline
 70
8
 71
3
 72
8
 73
4
 74
0
 40
0
 40
0
 40
0
 40
0
 40
1
 40
1
 40
1
 40
1
 10
18.841199
 20
226.229688
 30
0.0
 10
17.179199
 20
226.229688
 30
0.0
 10
15.841199
 20
227.567688
 30
0.0
 10
15.841199
 20
229.229688
 30
0.0
  0
LWPOLYLINE
  5
17e
100
AcDbEntity
  8
Layer_1
 62
7
100
AcDbPolyline
 90
2
 70
0
 10
66.961249
 20
226.229688
 30
0.0
 10
18.841199
 20
226.229688
 30
0.0
  0
SPLINE
  5
17f
100
AcDbEntity
  8
Layer_1
 62
7
100
AcDbSpline
 70
8
 71
3
 72
8
 73
4
 74
0
 40
0
 40
0
 40
0
 40
0
 40
1
 40
1
 40
1
 40
1
 10
15.841199
 20
239.259598
 30
0.0
 10
15.841199
 20
240.921598
 30
0.0
 10
17.179199
 20
242.259598
 30
0.0
 10
18.841199
 20
242.259598
 30
0.0
  0
LWPOLYLINE
  5
180
100
AcDbEntity
  8
Layer_1
 62
7
100
AcDbPolyline
 90
2
 70
0
 10
15.841199
 20
229.229688
 30
0.0
 10
15.841199
 20
239.259598
 30
0.0
  0
SPLINE
  5
181
100
AcDbEntity
  8
Layer_1
 62
7
100
AcDbSpline
 70
8
 71
3
 72
8
 73
4
 74
0
 40
0
 40
0
 40
0
 40
0
 40
1
 40
1
 40
1
 40
1
 10
26.839200
 20
64.871840
 30
0.0
 10
26.839200
 20
64.460754
 30
0.0
 10
26.675897
 20
64.066506
 30
0.0
 10
26.385216
 20
63.775824
 30
0.0
  0
SPLINE
  5
182
100
AcDbEntity
  8
Layer_1
 62
7
100
AcDbSpline
 70
8
 71
3
 72
8
 73
4
 74
0
 40
0
 40
0
 40
0
 40
0
 40
1
 40
1
 40
1
 40
1
 10
26.385216
 20
63.775824
 30
0.0
 10
26.094534
 20
63.485143
 30
0.0
 10
25.700286
 20
63.321840
 30
0.0
 10
25.289200
 20
63.321840
 30
0.0
  0
SPLINE
  5
183
100
AcDbEntity
  8
Layer_1
 62
7
100
AcDbSpline
 70
8
 71
3
 72
8
 73
4
 74
0
 40
0
 40
0
 40
0
 40
0
 40
1
 40
1
 40
1
 40
1
 10
25.289200
 20
63.321840
 30
0.0
 10
24.878114
 20
63.321840
 30
0.0
 10
24.483866
 20
63.485143
 30
0.0
 10
24.193184
 20
63.775824
 30
0.0
  0
SPLINE
  5
184
100
AcDbEntity
  8
Layer_1
 62
7
100
AcDbSpline
 70
8
 71
3
 72
8
 73
4
 74
0
 40
0
 40
0
 40
0
 40
0
 40
1
 40
1
 40
1
 40
1
 10
24.193184
 20
63.775824
 30
0.0
 10
23.902503
 20
64.066506
 30
0.0
 10
23.739200
 20
64.460754
 30
0.0
 10
23.739200
 20
64.871840
 30
0.0
  0
SPLINE
  5
185
100
AcDbEntity
  8
Layer_1
 62
7
100
AcDbSpline
 70
8
 71
3
 72
8
 73
4
 74
0
 40
0
 40
0
 40
0
 40
0
 40
1
 40
1
 40
1
 40
1
 10
23.739200
 20
64.871840
 30
0.0
 10
23.739200
 20
65.282926
 30
0.0
 10
23.902503
 20
65.677174
 30
0.0
 10
24.193184
 20
65.967856
 30
0.0
  0
SPLINE
  5
186
100
AcDbEntity
  8
Layer_1
 62
7
100
AcDbSpline
 70
8
 71
3
 72
8
 73
4
 74
0
 40
0
 40
0
 40
0
 40
0
 40
1
 40
1
 40
1
 40
1
 10
24.193184
 20
65.967856
 30
0.0
 10
24.483866
 20
66.258537
 30
0.0
 10
24.878114
 20
66.421840
 30
0.0
 10
25.289200
 20
66.421840
 30
0.0
  0
SPLINE
  5
187
100
AcDbEntity
  8
Layer_1
 62
7
100
AcDbSpline
 70
8
 71
3
 72
8
 73
4
 74
0
 40
0
 40
0
 40
0
 40
0
 40
1
 40
1
 40
1
 40
1
 10
25.289200
 20
66.421840
 30
0.0
 10
25.700286
 20
66.421840
 30
0.0
 10
26.094534
 20
66.258537
 30
0.0
 10
26.385216
 20
65.967856
 30
0.0
  0
SPLINE
  5
188
100
AcDbEntity
  8
Layer_1
 62
7
100
AcDbSpline
 70
8
 71
3
 72
8
 73
4
 74
0
 40
0
 40
0
 40
0
 40
0
 40
1
 40
1
 40
1
 40
1
 10
26.385216
 20
65.967856
 30
0.0
 10
26.675897
 20
65.677174
 30
0.0
 10
26.839200
 20
65.282926
 30
0.0
 10
26.839200
 20
64.871840
 30
0.0
  0
LWPOLYLINE
  5
189
100
AcDbEntity
  8
Layer_1
 62
7
100
AcDbPolyline
 90
1
 70
1
 10
18.841199
 20
242.259598
 30
0.0
  0
SPLINE
  5
18a
100
AcDbEntity
  8
Layer_1
 62
7
100
AcDbSpline
 70
8
 71
3
 72
8
 73
4
 74
0
 40
0
 40
0
 40
0
 40
0
 40
1
 40
1
 40
1
 40
1
 10
74.399250
 20
64.871840
 30
0.0
 10
74.399250
 20
64.460754
 30
0.0
 10
74.235947
 20
64.066506
 30
0.0
 10
73.945266
 20
63.775824
 30
0.0
  0
SPLINE
  5
18b
100
AcDbEntity
  8
Layer_1
 62
7
100
AcDbSpline
 70
8
 71
3
 72
8
 73
4
 74
0
 40
0
 40
0
 40
0
 40
0
 40
1
 40
1
 40
1
 40
1
 10
73.945266
 20
63.775824
 30
0.0
 10
73.654584
 20
63.485143
 30
0.0
 10
73.260336
 20
63.321840
 30
0.0
 10
72.849250
 20
63.321840
 30
0.0
  0
SPLINE
  5
18c
100
AcDbEntity
  8
Layer_1
 62
7
100
AcDbSpline
 70
8
 71
3
 72
8
 73
4
 74
0
 40
0
 40
0
 40
0
 40
0
 40
1
 40
1
 40
1
 40
1
 10
72.849250
 20
63.321840
 30
0.0
 10
72.438164
 20
63.321840
 30
0.0
 10
72.043916
 20
63.485143
 30
0.0
 10
71.753234
 20
63.775824
 30
0.0
  0
SPLINE
  5
18d
100
AcDbEntity
  8
Layer_1
 62
7
100
AcDbSpline
 70
8
 71
3
 72
8
 73
4
 74
0
 40
0
 40
0
 40
0
 40
0
 40
1
 40
1
 40
1
 40
1
 10
71.753234
 20
63.775824
 30
0.0
 10
71.462553
 20
64.066506
 30
0.0
 10
71.299250
 20
64.460754
 30
0.0
 10
71.299250
 20
64.871840
 30
0.0
  0
SPLINE
  5
18e
100
AcDbEntity
  8
Layer_1
 62
7
100
AcDbSpline
 70
8
 71
3
 72
8
 73
4
 74
0
 40
0
 40
0
 40
0
 40
0
 40
1
 40
1
 40
1
 40
1
 10
71.299250
 20
64.871840
 30
0.0
 10
71.299250
 20
65.282926
 30
0.0
 10
71.462553
 20
65.677174
 30
0.0
 10
71.753234
 20
65.967856
 30
0.0
  0
SPLINE
  5
18f
100
AcDbEntity
  8
Layer_1
 62
7
100
AcDbSpline
 70
8
 71
3
 72
8
 73
4
 74
0
 40
0
 40
0
 40
0
 40
0
 40
1
 40
1
 40
1
 40
1
 10
71.753234
 20
65.967856
 30
0.0
 10
72.043916
 20
66.258537
 30
0.0
 10
72.438164
 20
66.421840
 30
0.0
 10
72.849250
 20
66.421840
 30
0.0
  0
SPLINE
  5
190
100
AcDbEntity
  8
Layer_1
 62
7
100
AcDbSpline
 70
8
 71
3
 72
8
 73
4
 74
0
 40
0
 40
0
 40
0
 40
0
 40
1
 40
1
 40
1
 40
1
 10
72.849250
 20
66.421840
 30
0.0
 10
73.260336
 20
66.421840
 30
0.0
 10
73.654584
 20
66.258537
 30
0.0
 10
73.945266
 20
65.967856
 30
0.0
  0
SPLINE
  5
191
100
AcDbEntity
  8
Layer_1
 62
7
100
AcDbSpline
 70
8
 71
3
 72
8
 73
4
 74
0
 40
0
 40
0
 40
0
 40
0
 40
1
 40
1
 40
1
 40
1
 10
73.945266
 20
65.967856
 30
0.0
 10
74.235947
 20
65.677174
 30
0.0
 10
74.399250
 20
65.282926
 30
0.0
 10
74.399250
 20
64.871840
 30
0.0
  0
LWPOLYLINE
  5
192
100
AcDbEntity
  8
Layer_1
 62
7
100
AcDbPolyline
 90
1
 70
1
 10
26.839200
 20
64.871840
 30
0.0
  0
LWPOLYLINE
  5
193
100
AcDbEntity
  8
Layer_1
 62
7
100
AcDbPolyline
 90
1
 70
1
 10
74.399250
 20
64.871840
 30
0.0
  0
SPLINE
  5
194
100
AcDbEntity
  8
Layer_1
 62
7
100
AcDbSpline
 70
8
 71
3
 72
8
 73
4
 74
0
 40
0
 40
0
 40
0
 40
0
 40
1
 40
1
 40
1
 40
1
 10
92.501619
 20
215.646354
 30
0.0
 10
94.351769
 20
215.646354
 30
0.0
 10
95.841249
 20
214.156884
 30
0.0
 10
95.841249
 20
212.306734
 30
0.0
  0
LWPOLYLINE
  5
195
100
AcDbEntity
  8
Layer_1
 62
7
100
AcDbPolyline
 90
2
 70
0
 10
19.180819
 20
215.646354
 30
0.0
 10
92.501619
 20
215.646354
 30
0.0
  0
SPLINE
  5
196
100
AcDbEntity
  8
Layer_1
 62
7
100
AcDbSpline
 70
8
 71
3
 72
8
 73
4
 74
0
 40
0
 40
0
 40
0
 40
0
 40
1
 40
1
 40
1
 40
1
 10
95.841249
 20
163.985970
 30
0.0
 10
95.841249
 20
162.135820
 30
0.0
 10
94.351769
 20
160.646350
 30
0.0
 10
92.501619
 20
160.646350
 30
0.0
  0
LWPOLYLINE
  5
197
100
AcDbEntity
  8
Layer_1
 62
7
100
AcDbPolyline
 90
2
 70
0
 10
95.841249
 20
212.306734
 30
0.0
 10
95.841249
 20
163.985970
 30
0.0
  0
SPLINE
  5
198
100
AcDbEntity
  8
Layer_1
 62
7
100
AcDbSpline
 70
8
 71
3
 72
8
 73
4
 74
0
 40
0
 40
0
 40
0
 40
0
 40
1
 40
1
 40
1
 40
1
 10
19.180819
 20
160.646350
 30
0.0
 10
17.330669
 20
160.646350
 30
0.0
 10
15.841199
 20
162.135820
 30
0.0
 10
15.841199
 20
163.985970
 30
0.0
  0
LWPOLYLINE
  5
199
100
AcDbEntity
  8
Layer_1
 62
7
100
AcDbPolyline
 90
2
 70
0
 10
92.501619
 20
160.646350
 30
0.0
 10
19.180819
 20
160.646350
 30
0.0
  0
SPLINE
  5
19a
100
AcDbEntity
  8
Layer_1
 62
7
100
AcDbSpline
 70
8
 71
3
 72
8
 73
4
 74
0
 40
0
 40
0
 40
0
 40
0
 40
1
 40
1
 40
1
 40
1
 10
15.841199
 20
212.306734
 30
0.0
 10
15.841199
 20
214.156884
 30
0.0
 10
17.330669
 20
215.646354
 30
0.0
 10
19.180819
 20
215.646354
 30
0.0
  0
LWPOLYLINE
  5
19b
100
AcDbEntity
  8
Layer_1
 62
7
100
AcDbPolyline
 90
2
 70
0
 10
15.841199
 20
163.985970
 30
0.0
 10
15.841199
 20
212.306734
 30
0.0
  0
SPLINE
  5
19c
100
AcDbEntity
  8
Layer_1
 62
7
100
AcDbSpline
 70
8
 71
3
 72
8
 73
4
 74
0
 40
0
 40
0
 40
0
 40
0
 40
1
 40
1
 40
1
 40
1
 10
20.671199
 20
212.366354
 30
0.0
 10
20.671199
 20
211.955268
 30
0.0
 10
20.507896
 20
211.561020
 30
0.0
 10
20.217215
 20
211.270338
 30
0.0
  0
SPLINE
  5
19d
100
AcDbEntity
  8
Layer_1
 62
7
100
AcDbSpline
 70
8
 71
3
 72
8
 73
4
 74
0
 40
0
 40
0
 40
0
 40
0
 40
1
 40
1
 40
1
 40
1
 10
20.217215
 20
211.270338
 30
0.0
 10
19.926533
 20
210.979657
 30
0.0
 10
19.532285
 20
210.816354
 30
0.0
 10
19.121199
 20
210.816354
 30
0.0
  0
SPLINE
  5
19e
100
AcDbEntity
  8
Layer_1
 62
7
100
AcDbSpline
 70
8
 71
3
 72
8
 73
4
 74
0
 40
0
 40
0
 40
0
 40
0
 40
1
 40
1
 40
1
 40
1
 10
19.121199
 20
210.816354
 30
0.0
 10
18.710113
 20
210.816354
 30
0.0
 10
18.315865
 20
210.979657
 30
0.0
 10
18.025183
 20
211.270338
 30
0.0
  0
SPLINE
  5
19f
100
AcDbEntity
  8
Layer_1
 62
7
100
AcDbSpline
 70
8
 71
3
 72
8
 73
4
 74
0
 40
0
 40
0
 40
0
 40
0
 40
1
 40
1
 40
1
 40
1
 10
18.025183
 20
211.270338
 30
0.0
 10
17.734502
 20
211.561020
 30
0.0
 10
17.571199
 20
211.955268
 30
0.0
 10
17.571199
 20
212.366354
 30
0.0
  0
SPLINE
  5
1a0
100
AcDbEntity
  8
Layer_1
 62
7
100
AcDbSpline
 70
8
 71
3
 72
8
 73
4
 74
0
 40
0
 40
0
 40
0
 40
0
 40
1
 40
1
 40
1
 40
1
 10
17.571199
 20
212.366354
 30
0.0
 10
17.571199
 20
212.777440
 30
0.0
 10
17.734502
 20
213.171688
 30
0.0
 10
18.025183
 20
213.462370
 30
0.0
  0
SPLINE
  5
1a1
100
AcDbEntity
  8
Layer_1
 62
7
100
AcDbSpline
 70
8
 71
3
 72
8
 73
4
 74
0
 40
0
 40
0
 40
0
 40
0
 40
1
 40
1
 40
1
 40
1
 10
18.025183
 20
213.462370
 30
0.0
 10
18.315865
 20
213.753051
 30
0.0
 10
18.710113
 20
213.916354
 30
0.0
 10
19.121199
 20
213.916354
 30
0.0
  0
SPLINE
  5
1a2
100
AcDbEntity
  8
Layer_1
 62
7
100
AcDbSpline
 70
8
 71
3
 72
8
 73
4
 74
0
 40
0
 40
0
 40
0
 40
0
 40
1
 40
1
 40
1
 40
1
 10
19.121199
 20
213.916354
 30
0.0
 10
19.532285
 20
213.916354
 30
0.0
 10
19.926533
 20
213.753051
 30
0.0
 10
20.217215
 20
213.462370
 30
0.0
  0
SPLINE
  5
1a3
100
AcDbEntity
  8
Layer_1
 62
7
100
AcDbSpline
 70
8
 71
3
 72
8
 73
4
 74
0
 40
0
 40
0
 40
0
 40
0
 40
1
 40
1
 40
1
 40
1
 10
20.217215
 20
213.462370
 30
0.0
 10
20.507896
 20
213.171688
 30
0.0
 10
20.671199
 20
212.777440
 30
0.0
 10
20.671199
 20
212.366354
 30
0.0
  0
LWPOLYLINE
  5
1a4
100
AcDbEntity
  8
Layer_1
 62
7
100
AcDbPolyline
 90
1
 70
1
 10
19.180819
 20
215.646354
 30
0.0
  0
SPLINE
  5
1a5
100
AcDbEntity
  8
Layer_1
 62
7
100
AcDbSpline
 70
8
 71
3
 72
8
 73
4
 74
0
 40
0
 40
0
 40
0
 40
0
 40
1
 40
1
 40
1
 40
1
 10
94.111249
 20
163.926340
 30
0.0
 10
94.111249
 20
163.515254
 30
0.0
 10
93.947946
 20
163.121006
 30
0.0
 10
93.657265
 20
162.830324
 30
0.0
  0
SPLINE
  5
1a6
100
AcDbEntity
  8
Layer_1
 62
7
100
AcDbSpline
 70
8
 71
3
 72
8
 73
4
 74
0
 40
0
 40
0
 40
0
 40
0
 40
1
 40
1
 40
1
 40
1
 10
93.657265
 20
162.830324
 30
0.0
 10
93.366583
 20
162.539643
 30
0.0
 10
92.972335
 20
162.376340
 30
0.0
 10
92.561249
 20
162.376340
 30
0.0
  0
SPLINE
  5
1a7
100
AcDbEntity
  8
Layer_1
 62
7
100
AcDbSpline
 70
8
 71
3
 72
8
 73
4
 74
0
 40
0
 40
0
 40
0
 40
0
 40
1
 40
1
 40
1
 40
1
 10
92.561249
 20
162.376340
 30
0.0
 10
92.150163
 20
162.376340
 30
0.0
 10
91.755915
 20
162.539643
 30
0.0
 10
91.465233
 20
162.830324
 30
0.0
  0
SPLINE
  5
1a8
100
AcDbEntity
  8
Layer_1
 62
7
100
AcDbSpline
 70
8
 71
3
 72
8
 73
4
 74
0
 40
0
 40
0
 40
0
 40
0
 40
1
 40
1
 40
1
 40
1
 10
91.465233
 20
162.830324
 30
0.0
 10
91.174552
 20
163.121006
 30
0.0
 10
91.011249
 20
163.515254
 30
0.0
 10
91.011249
 20
163.926340
 30
0.0
  0
SPLINE
  5
1a9
100
AcDbEntity
  8
Layer_1
 62
7
100
AcDbSpline
 70
8
 71
3
 72
8
 73
4
 74
0
 40
0
 40
0
 40
0
 40
0
 40
1
 40
1
 40
1
 40
1
 10
91.011249
 20
163.926340
 30
0.0
 10
91.011249
 20
164.337426
 30
0.0
 10
91.174552
 20
164.731674
 30
0.0
 10
91.465233
 20
165.022356
 30
0.0
  0
SPLINE
  5
1aa
100
AcDbEntity
  8
Layer_1
 62
7
100
AcDbSpline
 70
8
 71
3
 72
8
 73
4
 74
0
 40
0
 40
0
 40
0
 40
0
 40
1
 40
1
 40
1
 40
1
 10
91.465233
 20
165.022356
 30
0.0
 10
91.755915
 20
165.313037
 30
0.0
 10
92.150163
 20
165.476340
 30
0.0
 10
92.561249
 20
165.476340
 30
0.0
  0
SPLINE
  5
1ab
100
AcDbEntity
  8
Layer_1
 62
7
100
AcDbSpline
 70
8
 71
3
 72
8
 73
4
 74
0
 40
0
 40
0
 40
0
 40
0
 40
1
 40
1
 40
1
 40
1
 10
92.561249
 20
165.476340
 30
0.0
 10
92.972335
 20
165.476340
 30
0.0
 10
93.366583
 20
165.313037
 30
0.0
 10
93.657265
 20
165.022356
 30
0.0
  0
SPLINE
  5
1ac
100
AcDbEntity
  8
Layer_1
 62
7
100
AcDbSpline
 70
8
 71
3
 72
8
 73
4
 74
0
 40
0
 40
0
 40
0
 40
0
 40
1
 40
1
 40
1
 40
1
 10
93.657265
 20
165.022356
 30
0.0
 10
93.947946
 20
164.731674
 30
0.0
 10
94.111249
 20
164.337426
 30
0.0
 10
94.111249
 20
163.926340
 30
0.0
  0
LWPOLYLINE
  5
1ad
100
AcDbEntity
  8
Layer_1
 62
7
100
AcDbPolyline
 90
1
 70
1
 10
20.671199
 20
212.366354
 30
0.0
  0
SPLINE
  5
1ae
100
AcDbEntity
  8
Layer_1
 62
7
100
AcDbSpline
 70
8
 71
3
 72
8
 73
4
 74
0
 40
0
 40
0
 40
0
 40
0
 40
1
 40
1
 40
1
 40
1
 10
20.671199
 20
163.926340
 30
0.0
 10
20.671199
 20
163.515254
 30
0.0
 10
20.507896
 20
163.121006
 30
0.0
 10
20.217215
 20
162.830324
 30
0.0
  0
SPLINE
  5
1af
100
AcDbEntity
  8
Layer_1
 62
7
100
AcDbSpline
 70
8
 71
3
 72
8
 73
4
 74
0
 40
0
 40
0
 40
0
 40
0
 40
1
 40
1
 40
1
 40
1
 10
20.217215
 20
162.830324
 30
0.0
 10
19.926533
 20
162.539643
 30
0.0
 10
19.532285
 20
162.376340
 30
0.0
 10
19.121199
 20
162.376340
 30
0.0
  0
SPLINE
  5
1b0
100
AcDbEntity
  8
Layer_1
 62
7
100
AcDbSpline
 70
8
 71
3
 72
8
 73
4
 74
0
 40
0
 40
0
 40
0
 40
0
 40
1
 40
1
 40
1
 40
1
 10
19.121199
 20
162.376340
 30
0.0
 10
18.710113
 20
162.376340
 30
0.0
 10
18.315865
 20
162.539643
 30
0.0
 10
18.025183
 20
162.830324
 30
0.0
  0
SPLINE
  5
1b1
100
AcDbEntity
  8
Layer_1
 62
7
100
AcDbSpline
 70
8
 71
3
 72
8
 73
4
 74
0
 40
0
 40
0
 40
0
 40
0
 40
1
 40
1
 40
1
 40
1
 10
18.025183
 20
162.830324
 30
0.0
 10
17.734502
 20
163.121006
 30
0.0
 10
17.571199
 20
163.515254
 30
0.0
 10
17.571199
 20
163.926340
 30
0.0
  0
SPLINE
  5
1b2
100
AcDbEntity
  8
Layer_1
 62
7
100
AcDbSpline
 70
8
 71
3
 72
8
 73
4
 74
0
 40
0
 40
0
 40
0
 40
0
 40
1
 40
1
 40
1
 40
1
 10
17.571199
 20
163.926340
 30
0.0
 10
17.571199
 20
164.337426
 30
0.0
 10
17.734502
 20
164.731674
 30
0.0
 10
18.025183
 20
165.022356
 30
0.0
  0
SPLINE
  5
1b3
100
AcDbEntity
  8
Layer_1
 62
7
100
AcDbSpline
 70
8
 71
3
 72
8
 73
4
 74
0
 40
0
 40
0
 40
0
 40
0
 40
1
 40
1
 40
1
 40
1
 10
18.025183
 20
165.022356
 30
0.0
 10
18.315865
 20
165.313037
 30
0.0
 10
18.710113
 20
165.476340
 30
0.0
 10
19.121199
 20
165.476340
 30
0.0
  0
SPLINE
  5
1b4
100
AcDbEntity
  8
Layer_1
 62
7
100
AcDbSpline
 70
8
 71
3
 72
8
 73
4
 74
0
 40
0
 40
0
 40
0
 40
0
 40
1
 40
1
 40
1
 40
1
 10
19.121199
 20
165.476340
 30
0.0
 10
19.532285
 20
165.476340
 30
0.0
 10
19.926533
 20
165.313037
 30
0.0
 10
20.217215
 20
165.022356
 30
0.0
  0
SPLINE
  5
1b5
100
AcDbEntity
  8
Layer_1
 62
7
100
AcDbSpline
 70
8
 71
3
 72
8
 73
4
 74
0
 40
0
 40
0
 40
0
 40
0
 40
1
 40
1
 40
1
 40
1
 10
20.217215
 20
165.022356
 30
0.0
 10
20.507896
 20
164.731674
 30
0.0
 10
20.671199
 20
164.337426
 30
0.0
 10
20.671199
 20
163.926340
 30
0.0
  0
LWPOLYLINE
  5
1b6
100
AcDbEntity
  8
Layer_1
 62
7
100
AcDbPolyline
 90
1
 70
1
 10
94.111249
 20
163.926340
 30
0.0
  0
SPLINE
  5
1b7
100
AcDbEntity
  8
Layer_1
 62
7
100
AcDbSpline
 70
8
 71
3
 72
8
 73
4
 74
0
 40
0
 40
0
 40
0
 40
0
 40
1
 40
1
 40
1
 40
1
 10
94.111249
 20
212.366354
 30
0.0
 10
94.111249
 20
211.955268
 30
0.0
 10
93.947946
 20
211.561020
 30
0.0
 10
93.657265
 20
211.270338
 30
0.0
  0
SPLINE
  5
1b8
100
AcDbEntity
  8
Layer_1
 62
7
100
AcDbSpline
 70
8
 71
3
 72
8
 73
4
 74
0
 40
0
 40
0
 40
0
 40
0
 40
1
 40
1
 40
1
 40
1
 10
93.657265
 20
211.270338
 30
0.0
 10
93.366583
 20
210.979657
 30
0.0
 10
92.972335
 20
210.816354
 30
0.0
 10
92.561249
 20
210.816354
 30
0.0
  0
SPLINE
  5
1b9
100
AcDbEntity
  8
Layer_1
 62
7
100
AcDbSpline
 70
8
 71
3
 72
8
 73
4
 74
0
 40
0
 40
0
 40
0
 40
0
 40
1
 40
1
 40
1
 40
1
 10
92.561249
 20
210.816354
 30
0.0
 10
92.150163
 20
210.816354
 30
0.0
 10
91.755915
 20
210.979657
 30
0.0
 10
91.465233
 20
211.270338
 30
0.0
  0
SPLINE
  5
1ba
100
AcDbEntity
  8
Layer_1
 62
7
100
AcDbSpline
 70
8
 71
3
 72
8
 73
4
 74
0
 40
0
 40
0
 40
0
 40
0
 40
1
 40
1
 40
1
 40
1
 10
91.465233
 20
211.270338
 30
0.0
 10
91.174552
 20
211.561020
 30
0.0
 10
91.011249
 20
211.955268
 30
0.0
 10
91.011249
 20
212.366354
 30
0.0
  0
SPLINE
  5
1bb
100
AcDbEntity
  8
Layer_1
 62
7
100
AcDbSpline
 70
8
 71
3
 72
8
 73
4
 74
0
 40
0
 40
0
 40
0
 40
0
 40
1
 40
1
 40
1
 40
1
 10
91.011249
 20
212.366354
 30
0.0
 10
91.011249
 20
212.777440
 30
0.0
 10
91.174552
 20
213.171688
 30
0.0
 10
91.465233
 20
213.462370
 30
0.0
  0
SPLINE
  5
1bc
100
AcDbEntity
  8
Layer_1
 62
7
100
AcDbSpline
 70
8
 71
3
 72
8
 73
4
 74
0
 40
0
 40
0
 40
0
 40
0
 40
1
 40
1
 40
1
 40
1
 10
91.465233
 20
213.462370
 30
0.0
 10
91.755915
 20
213.753051
 30
0.0
 10
92.150163
 20
213.916354
 30
0.0
 10
92.561249
 20
213.916354
 30
0.0
  0
SPLINE
  5
1bd
100
AcDbEntity
  8
Layer_1
 62
7
100
AcDbSpline
 70
8
 71
3
 72
8
 73
4
 74
0
 40
0
 40
0
 40
0
 40
0
 40
1
 40
1
 40
1
 40
1
 10
92.561249
 20
213.916354
 30
0.0
 10
92.972335
 20
213.916354
 30
0.0
 10
93.366583
 20
213.753051
 30
0.0
 10
93.657265
 20
213.462370
 30
0.0
  0
SPLINE
  5
1be
100
AcDbEntity
  8
Layer_1
 62
7
100
AcDbSpline
 70
8
 71
3
 72
8
 73
4
 74
0
 40
0
 40
0
 40
0
 40
0
 40
1
 40
1
 40
1
 40
1
 10
93.657265
 20
213.462370
 30
0.0
 10
93.947946
 20
213.171688
 30
0.0
 10
94.111249
 20
212.777440
 30
0.0
 10
94.111249
 20
212.366354
 30
0.0
  0
LWPOLYLINE
  5
1bf
100
AcDbEntity
  8
Layer_1
 62
7
100
AcDbPolyline
 90
1
 70
1
 10
20.671199
 20
163.926340
 30
0.0
  0
LWPOLYLINE
  5
1c0
100
AcDbEntity
  8
Layer_1
 62
7
100
AcDbPolyline
 90
1
 70
1
 10
94.111249
 20
212.366354
 30
0.0
  0
SPLINE
  5
1c1
100
AcDbEntity
  8
Layer_1
 62
7
100
AcDbSpline
 70
8
 71
3
 72
8
 73
4
 74
0
 40
0
 40
0
 40
0
 40
0
 40
1
 40
1
 40
1
 40
1
 10
92.841187
 20
89.591810
 30
0.0
 10
94.503189
 20
89.591810
 30
0.0
 10
95.841191
 20
88.253810
 30
0.0
 10
95.841191
 20
86.591810
 30
0.0
  0
LWPOLYLINE
  5
1c2
100
AcDbEntity
  8
Layer_1
 62
7
100
AcDbPolyline
 90
2
 70
0
 10
18.841203
 20
89.591810
 30
0.0
 10
92.841187
 20
89.591810
 30
0.0
  0
SPLINE
  5
1c3
100
AcDbEntity
  8
Layer_1
 62
7
100
AcDbSpline
 70
8
 71
3
 72
8
 73
4
 74
0
 40
0
 40
0
 40
0
 40
0
 40
1
 40
1
 40
1
 40
1
 10
95.841191
 20
55.031940
 30
0.0
 10
95.841191
 20
53.369940
 30
0.0
 10
94.503189
 20
52.031940
 30
0.0
 10
92.841187
 20
52.031940
 30
0.0
  0
LWPOLYLINE
  5
1c4
100
AcDbEntity
  8
Layer_1
 62
7
100
AcDbPolyline
 90
2
 70
0
 10
95.841191
 20
86.591810
 30
0.0
 10
95.841191
 20
55.031940
 30
0.0
  0
SPLINE
  5
1c5
100
AcDbEntity
  8
Layer_1
 62
7
100
AcDbSpline
 70
8
 71
3
 72
8
 73
4
 74
0
 40
0
 40
0
 40
0
 40
0
 40
1
 40
1
 40
1
 40
1
 10
18.841203
 20
52.031940
 30
0.0
 10
17.179201
 20
52.031940
 30
0.0
 10
15.841199
 20
53.369940
 30
0.0
 10
15.841199
 20
55.031940
 30
0.0
  0
LWPOLYLINE
  5
1c6
100
AcDbEntity
  8
Layer_1
 62
7
100
AcDbPolyline
 90
2
 70
0
 10
92.841187
 20
52.031940
 30
0.0
 10
18.841203
 20
52.031940
 30
0.0
  0
SPLINE
  5
1c7
100
AcDbEntity
  8
Layer_1
 62
7
100
AcDbSpline
 70
8
 71
3
 72
8
 73
4
 74
0
 40
0
 40
0
 40
0
 40
0
 40
1
 40
1
 40
1
 40
1
 10
15.841199
 20
86.591810
 30
0.0
 10
15.841199
 20
88.253810
 30
0.0
 10
17.179201
 20
89.591810
 30
0.0
 10
18.841203
 20
89.591810
 30
0.0
  0
LWPOLYLINE
  5
1c8
100
AcDbEntity
  8
Layer_1
 62
7
100
AcDbPolyline
 90
2
 70
0
 10
15.841199
 20
55.031940
 30
0.0
 10
15.841199
 20
86.591810
 30
0.0
  0
SPLINE
  5
1c9
100
AcDbEntity
  8
Layer_1
 62
7
100
AcDbSpline
 70
8
 71
3
 72
8
 73
4
 74
0
 40
0
 40
0
 40
0
 40
0
 40
1
 40
1
 40
1
 40
1
 10
94.111203
 20
55.311940
 30
0.0
 10
94.111203
 20
54.900854
 30
0.0
 10
93.947900
 20
54.506606
 30
0.0
 10
93.657219
 20
54.215924
 30
0.0
  0
SPLINE
  5
1ca
100
AcDbEntity
  8
Layer_1
 62
7
100
AcDbSpline
 70
8
 71
3
 72
8
 73
4
 74
0
 40
0
 40
0
 40
0
 40
0
 40
1
 40
1
 40
1
 40
1
 10
93.657219
 20
54.215924
 30
0.0
 10
93.366537
 20
53.925243
 30
0.0
 10
92.972289
 20
53.761940
 30
0.0
 10
92.561203
 20
53.761940
 30
0.0
  0
SPLINE
  5
1cb
100
AcDbEntity
  8
Layer_1
 62
7
100
AcDbSpline
 70
8
 71
3
 72
8
 73
4
 74
0
 40
0
 40
0
 40
0
 40
0
 40
1
 40
1
 40
1
 40
1
 10
92.561203
 20
53.761940
 30
0.0
 10
92.150117
 20
53.761940
 30
0.0
 10
91.755869
 20
53.925243
 30
0.0
 10
91.465187
 20
54.215924
 30
0.0
  0
SPLINE
  5
1cc
100
AcDbEntity
  8
Layer_1
 62
7
100
AcDbSpline
 70
8
 71
3
 72
8
 73
4
 74
0
 40
0
 40
0
 40
0
 40
0
 40
1
 40
1
 40
1
 40
1
 10
91.465187
 20
54.215924
 30
0.0
 10
91.174506
 20
54.506606
 30
0.0
 10
91.011203
 20
54.900854
 30
0.0
 10
91.011203
 20
55.311940
 30
0.0
  0
SPLINE
  5
1cd
100
AcDbEntity
  8
Layer_1
 62
7
100
AcDbSpline
 70
8
 71
3
 72
8
 73
4
 74
0
 40
0
 40
0
 40
0
 40
0
 40
1
 40
1
 40
1
 40
1
 10
91.011203
 20
55.311940
 30
0.0
 10
91.011203
 20
55.723026
 30
0.0
 10
91.174506
 20
56.117274
 30
0.0
 10
91.465187
 20
56.407956
 30
0.0
  0
SPLINE
  5
1ce
100
AcDbEntity
  8
Layer_1
 62
7
100
AcDbSpline
 70
8
 71
3
 72
8
 73
4
 74
0
 40
0
 40
0
 40
0
 40
0
 40
1
 40
1
 40
1
 40
1
 10
91.465187
 20
56.407956
 30
0.0
 10
91.755869
 20
56.698637
 30
0.0
 10
92.150117
 20
56.861940
 30
0.0
 10
92.561203
 20
56.861940
 30
0.0
  0
SPLINE
  5
1cf
100
AcDbEntity
  8
Layer_1
 62
7
100
AcDbSpline
 70
8
 71
3
 72
8
 73
4
 74
0
 40
0
 40
0
 40
0
 40
0
 40
1
 40
1
 40
1
 40
1
 10
92.561203
 20
56.861940
 30
0.0
 10
92.972289
 20
56.861940
 30
0.0
 10
93.366537
 20
56.698637
 30
0.0
 10
93.657219
 20
56.407956
 30
0.0
  0
SPLINE
  5
1d0
100
AcDbEntity
  8
Layer_1
 62
7
100
AcDbSpline
 70
8
 71
3
 72
8
 73
4
 74
0
 40
0
 40
0
 40
0
 40
0
 40
1
 40
1
 40
1
 40
1
 10
93.657219
 20
56.407956
 30
0.0
 10
93.947900
 20
56.117274
 30
0.0
 10
94.111203
 20
55.723026
 30
0.0
 10
94.111203
 20
55.311940
 30
0.0
  0
LWPOLYLINE
  5
1d1
100
AcDbEntity
  8
Layer_1
 62
7
100
AcDbPolyline
 90
1
 70
1
 10
18.841203
 20
89.591810
 30
0.0
  0
SPLINE
  5
1d2
100
AcDbEntity
  8
Layer_1
 62
7
100
AcDbSpline
 70
8
 71
3
 72
8
 73
4
 74
0
 40
0
 40
0
 40
0
 40
0
 40
1
 40
1
 40
1
 40
1
 10
20.671197
 20
55.311940
 30
0.0
 10
20.671197
 20
54.900854
 30
0.0
 10
20.507894
 20
54.506606
 30
0.0
 10
20.217213
 20
54.215924
 30
0.0
  0
SPLINE
  5
1d3
100
AcDbEntity
  8
Layer_1
 62
7
100
AcDbSpline
 70
8
 71
3
 72
8
 73
4
 74
0
 40
0
 40
0
 40
0
 40
0
 40
1
 40
1
 40
1
 40
1
 10
20.217213
 20
54.215924
 30
0.0
 10
19.926531
 20
53.925243
 30
0.0
 10
19.532283
 20
53.761940
 30
0.0
 10
19.121197
 20
53.761940
 30
0.0
  0
SPLINE
  5
1d4
100
AcDbEntity
  8
Layer_1
 62
7
100
AcDbSpline
 70
8
 71
3
 72
8
 73
4
 74
0
 40
0
 40
0
 40
0
 40
0
 40
1
 40
1
 40
1
 40
1
 10
19.121197
 20
53.761940
 30
0.0
 10
18.710111
 20
53.761940
 30
0.0
 10
18.315863
 20
53.925243
 30
0.0
 10
18.025181
 20
54.215924
 30
0.0
  0
SPLINE
  5
1d5
100
AcDbEntity
  8
Layer_1
 62
7
100
AcDbSpline
 70
8
 71
3
 72
8
 73
4
 74
0
 40
0
 40
0
 40
0
 40
0
 40
1
 40
1
 40
1
 40
1
 10
18.025181
 20
54.215924
 30
0.0
 10
17.734500
 20
54.506606
 30
0.0
 10
17.571197
 20
54.900854
 30
0.0
 10
17.571197
 20
55.311940
 30
0.0
  0
SPLINE
  5
1d6
100
AcDbEntity
  8
Layer_1
 62
7
100
AcDbSpline
 70
8
 71
3
 72
8
 73
4
 74
0
 40
0
 40
0
 40
0
 40
0
 40
1
 40
1
 40
1
 40
1
 10
17.571197
 20
55.311940
 30
0.0
 10
17.571197
 20
55.723026
 30
0.0
 10
17.734500
 20
56.117274
 30
0.0
 10
18.025181
 20
56.407956
 30
0.0
  0
SPLINE
  5
1d7
100
AcDbEntity
  8
Layer_1
 62
7
100
AcDbSpline
 70
8
 71
3
 72
8
 73
4
 74
0
 40
0
 40
0
 40
0
 40
0
 40
1
 40
1
 40
1
 40
1
 10
18.025181
 20
56.407956
 30
0.0
 10
18.315863
 20
56.698637
 30
0.0
 10
18.710111
 20
56.861940
 30
0.0
 10
19.121197
 20
56.861940
 30
0.0
  0
SPLINE
  5
1d8
100
AcDbEntity
  8
Layer_1
 62
7
100
AcDbSpline
 70
8
 71
3
 72
8
 73
4
 74
0
 40
0
 40
0
 40
0
 40
0
 40
1
 40
1
 40
1
 40
1
 10
19.121197
 20
56.861940
 30
0.0
 10
19.532283
 20
56.861940
 30
0.0
 10
19.926531
 20
56.698637
 30
0.0
 10
20.217213
 20
56.407956
 30
0.0
  0
SPLINE
  5
1d9
100
AcDbEntity
  8
Layer_1
 62
7
100
AcDbSpline
 70
8
 71
3
 72
8
 73
4
 74
0
 40
0
 40
0
 40
0
 40
0
 40
1
 40
1
 40
1
 40
1
 10
20.217213
 20
56.407956
 30
0.0
 10
20.507894
 20
56.117274
 30
0.0
 10
20.671197
 20
55.723026
 30
0.0
 10
20.671197
 20
55.311940
 30
0.0
  0
LWPOLYLINE
  5
1da
100
AcDbEntity
  8
Layer_1
 62
7
100
AcDbPolyline
 90
1
 70
1
 10
94.111203
 20
55.311940
 30
0.0
  0
SPLINE
  5
1db
100
AcDbEntity
  8
Layer_1
 62
7
100
AcDbSpline
 70
8
 71
3
 72
8
 73
4
 74
0
 40
0
 40
0
 40
0
 40
0
 40
1
 40
1
 40
1
 40
1
 10
20.671255
 20
212.366371
 30
0.0
 10
20.671253
 20
211.510331
 30
0.0
 10
19.977295
 20
210.816374
 30
0.0
 10
19.121255
 20
210.816374
 30
0.0
  0
SPLINE
  5
1dc
100
AcDbEntity
  8
Layer_1
 62
7
100
AcDbSpline
 70
8
 71
3
 72
8
 73
4
 74
0
 40
0
 40
0
 40
0
 40
0
 40
1
 40
1
 40
1
 40
1
 10
19.121255
 20
210.816374
 30
0.0
 10
18.265215
 20
210.816374
 30
0.0
 10
17.571257
 20
211.510331
 30
0.0
 10
17.571255
 20
212.366371
 30
0.0
  0
SPLINE
  5
1dd
100
AcDbEntity
  8
Layer_1
 62
7
100
AcDbSpline
 70
8
 71
3
 72
8
 73
4
 74
0
 40
0
 40
0
 40
0
 40
0
 40
1
 40
1
 40
1
 40
1
 10
17.571255
 20
212.366371
 30
0.0
 10
17.571255
 20
213.222412
 30
0.0
 10
18.265214
 20
213.916371
 30
0.0
 10
19.121255
 20
213.916371
 30
0.0
  0
SPLINE
  5
1de
100
AcDbEntity
  8
Layer_1
 62
7
100
AcDbSpline
 70
8
 71
3
 72
8
 73
4
 74
0
 40
0
 40
0
 40
0
 40
0
 40
1
 40
1
 40
1
 40
1
 10
19.121255
 20
213.916371
 30
0.0
 10
19.532341
 20
213.916371
 30
0.0
 10
19.926589
 20
213.753068
 30
0.0
 10
20.217271
 20
213.462387
 30
0.0
  0
SPLINE
  5
1df
100
AcDbEntity
  8
Layer_1
 62
7
100
AcDbSpline
 70
8
 71
3
 72
8
 73
4
 74
0
 40
0
 40
0
 40
0
 40
0
 40
1
 40
1
 40
1
 40
1
 10
20.217271
 20
213.462387
 30
0.0
 10
20.507952
 20
213.171705
 30
0.0
 10
20.671255
 20
212.777457
 30
0.0
 10
20.671255
 20
212.366371
 30
0.0
  0
LWPOLYLINE
  5
1e0
100
AcDbEntity
  8
Layer_1
 62
7
100
AcDbPolyline
 90
1
 70
1
 10
20.671197
 20
55.311940
 30
0.0
  0
SPLINE
  5
1e1
100
AcDbEntity
  8
Layer_1
 62
7
100
AcDbSpline
 70
8
 71
3
 72
8
 73
4
 74
0
 40
0
 40
0
 40
0
 40
0
 40
1
 40
1
 40
1
 40
1
 10
94.111261
 20
212.366371
 30
0.0
 10
94.111259
 20
211.510331
 30
0.0
 10
93.417301
 20
210.816374
 30
0.0
 10
92.561261
 20
210.816374
 30
0.0
  0
SPLINE
  5
1e2
100
AcDbEntity
  8
Layer_1
 62
7
100
AcDbSpline
 70
8
 71
3
 72
8
 73
4
 74
0
 40
0
 40
0
 40
0
 40
0
 40
1
 40
1
 40
1
 40
1
 10
92.561261
 20
210.816374
 30
0.0
 10
91.705221
 20
210.816374
 30
0.0
 10
91.011263
 20
211.510331
 30
0.0
 10
91.011261
 20
212.366371
 30
0.0
  0
SPLINE
  5
1e3
100
AcDbEntity
  8
Layer_1
 62
7
100
AcDbSpline
 70
8
 71
3
 72
8
 73
4
 74
0
 40
0
 40
0
 40
0
 40
0
 40
1
 40
1
 40
1
 40
1
 10
91.011261
 20
212.366371
 30
0.0
 10
91.011261
 20
212.777457
 30
0.0
 10
91.174564
 20
213.171705
 30
0.0
 10
91.465245
 20
213.462387
 30
0.0
  0
SPLINE
  5
1e4
100
AcDbEntity
  8
Layer_1
 62
7
100
AcDbSpline
 70
8
 71
3
 72
8
 73
4
 74
0
 40
0
 40
0
 40
0
 40
0
 40
1
 40
1
 40
1
 40
1
 10
91.465245
 20
213.462387
 30
0.0
 10
91.755927
 20
213.753068
 30
0.0
 10
92.150175
 20
213.916371
 30
0.0
 10
92.561261
 20
213.916371
 30
0.0
  0
SPLINE
  5
1e5
100
AcDbEntity
  8
Layer_1
 62
7
100
AcDbSpline
 70
8
 71
3
 72
8
 73
4
 74
0
 40
0
 40
0
 40
0
 40
0
 40
1
 40
1
 40
1
 40
1
 10
92.561261
 20
213.916371
 30
0.0
 10
92.972347
 20
213.916371
 30
0.0
 10
93.366595
 20
213.753068
 30
0.0
 10
93.657277
 20
213.462387
 30
0.0
  0
SPLINE
  5
1e6
100
AcDbEntity
  8
Layer_1
 62
7
100
AcDbSpline
 70
8
 71
3
 72
8
 73
4
 74
0
 40
0
 40
0
 40
0
 40
0
 40
1
 40
1
 40
1
 40
1
 10
93.657277
 20
213.462387
 30
0.0
 10
93.947958
 20
213.171705
 30
0.0
 10
94.111261
 20
212.777457
 30
0.0
 10
94.111261
 20
212.366371
 30
0.0
  0
LWPOLYLINE
  5
1e7
100
AcDbEntity
  8
Layer_1
 62
7
100
AcDbPolyline
 90
1
 70
1
 10
20.671255
 20
212.366371
 30
0.0
  0
SPLINE
  5
1e8
100
AcDbEntity
  8
Layer_1
 62
7
100
AcDbSpline
 70
8
 71
3
 72
8
 73
4
 74
0
 40
0
 40
0
 40
0
 40
0
 40
1
 40
1
 40
1
 40
1
 10
94.111261
 20
181.366510
 30
0.0
 10
94.111261
 20
180.955424
 30
0.0
 10
93.947958
 20
180.561176
 30
0.0
 10
93.657277
 20
180.270494
 30
0.0
  0
SPLINE
  5
1e9
100
AcDbEntity
  8
Layer_1
 62
7
100
AcDbSpline
 70
8
 71
3
 72
8
 73
4
 74
0
 40
0
 40
0
 40
0
 40
0
 40
1
 40
1
 40
1
 40
1
 10
93.657277
 20
180.270494
 30
0.0
 10
93.366595
 20
179.979813
 30
0.0
 10
92.972347
 20
179.816510
 30
0.0
 10
92.561261
 20
179.816510
 30
0.0
  0
SPLINE
  5
1ea
100
AcDbEntity
  8
Layer_1
 62
7
100
AcDbSpline
 70
8
 71
3
 72
8
 73
4
 74
0
 40
0
 40
0
 40
0
 40
0
 40
1
 40
1
 40
1
 40
1
 10
92.561261
 20
179.816510
 30
0.0
 10
92.150175
 20
179.816510
 30
0.0
 10
91.755927
 20
179.979813
 30
0.0
 10
91.465245
 20
180.270494
 30
0.0
  0
SPLINE
  5
1eb
100
AcDbEntity
  8
Layer_1
 62
7
100
AcDbSpline
 70
8
 71
3
 72
8
 73
4
 74
0
 40
0
 40
0
 40
0
 40
0
 40
1
 40
1
 40
1
 40
1
 10
91.465245
 20
180.270494
 30
0.0
 10
91.174564
 20
180.561176
 30
0.0
 10
91.011261
 20
180.955424
 30
0.0
 10
91.011261
 20
181.366510
 30
0.0
  0
SPLINE
  5
1ec
100
AcDbEntity
  8
Layer_1
 62
7
100
AcDbSpline
 70
8
 71
3
 72
8
 73
4
 74
0
 40
0
 40
0
 40
0
 40
0
 40
1
 40
1
 40
1
 40
1
 10
91.011261
 20
181.366510
 30
0.0
 10
91.011261
 20
181.777596
 30
0.0
 10
91.174564
 20
182.171844
 30
0.0
 10
91.465245
 20
182.462526
 30
0.0
  0
SPLINE
  5
1ed
100
AcDbEntity
  8
Layer_1
 62
7
100
AcDbSpline
 70
8
 71
3
 72
8
 73
4
 74
0
 40
0
 40
0
 40
0
 40
0
 40
1
 40
1
 40
1
 40
1
 10
91.465245
 20
182.462526
 30
0.0
 10
91.755927
 20
182.753207
 30
0.0
 10
92.150175
 20
182.916510
 30
0.0
 10
92.561261
 20
182.916510
 30
0.0
  0
SPLINE
  5
1ee
100
AcDbEntity
  8
Layer_1
 62
7
100
AcDbSpline
 70
8
 71
3
 72
8
 73
4
 74
0
 40
0
 40
0
 40
0
 40
0
 40
1
 40
1
 40
1
 40
1
 10
92.561261
 20
182.916510
 30
0.0
 10
92.972347
 20
182.916510
 30
0.0
 10
93.366595
 20
182.753207
 30
0.0
 10
93.657277
 20
182.462526
 30
0.0
  0
SPLINE
  5
1ef
100
AcDbEntity
  8
Layer_1
 62
7
100
AcDbSpline
 70
8
 71
3
 72
8
 73
4
 74
0
 40
0
 40
0
 40
0
 40
0
 40
1
 40
1
 40
1
 40
1
 10
93.657277
 20
182.462526
 30
0.0
 10
93.947958
 20
182.171844
 30
0.0
 10
94.111261
 20
181.777596
 30
0.0
 10
94.111261
 20
181.366510
 30
0.0
  0
LWPOLYLINE
  5
1f0
100
AcDbEntity
  8
Layer_1
 62
7
100
AcDbPolyline
 90
1
 70
1
 10
94.111261
 20
212.366371
 30
0.0
  0
SPLINE
  5
1f1
100
AcDbEntity
  8
Layer_1
 62
7
100
AcDbSpline
 70
8
 71
3
 72
8
 73
4
 74
0
 40
0
 40
0
 40
0
 40
0
 40
1
 40
1
 40
1
 40
1
 10
20.671255
 20
181.366510
 30
0.0
 10
20.671255
 20
180.955424
 30
0.0
 10
20.507952
 20
180.561176
 30
0.0
 10
20.217271
 20
180.270494
 30
0.0
  0
SPLINE
  5
1f2
100
AcDbEntity
  8
Layer_1
 62
7
100
AcDbSpline
 70
8
 71
3
 72
8
 73
4
 74
0
 40
0
 40
0
 40
0
 40
0
 40
1
 40
1
 40
1
 40
1
 10
20.217271
 20
180.270494
 30
0.0
 10
19.926589
 20
179.979813
 30
0.0
 10
19.532341
 20
179.816510
 30
0.0
 10
19.121255
 20
179.816510
 30
0.0
  0
SPLINE
  5
1f3
100
AcDbEntity
  8
Layer_1
 62
7
100
AcDbSpline
 70
8
 71
3
 72
8
 73
4
 74
0
 40
0
 40
0
 40
0
 40
0
 40
1
 40
1
 40
1
 40
1
 10
19.121255
 20
179.816510
 30
0.0
 10
18.710169
 20
179.816510
 30
0.0
 10
18.315921
 20
179.979813
 30
0.0
 10
18.025239
 20
180.270494
 30
0.0
  0
SPLINE
  5
1f4
100
AcDbEntity
  8
Layer_1
 62
7
100
AcDbSpline
 70
8
 71
3
 72
8
 73
4
 74
0
 40
0
 40
0
 40
0
 40
0
 40
1
 40
1
 40
1
 40
1
 10
18.025239
 20
180.270494
 30
0.0
 10
17.734558
 20
180.561176
 30
0.0
 10
17.571255
 20
180.955424
 30
0.0
 10
17.571255
 20
181.366510
 30
0.0
  0
SPLINE
  5
1f5
100
AcDbEntity
  8
Layer_1
 62
7
100
AcDbSpline
 70
8
 71
3
 72
8
 73
4
 74
0
 40
0
 40
0
 40
0
 40
0
 40
1
 40
1
 40
1
 40
1
 10
17.571255
 20
181.366510
 30
0.0
 10
17.571255
 20
181.777596
 30
0.0
 10
17.734558
 20
182.171844
 30
0.0
 10
18.025239
 20
182.462526
 30
0.0
  0
SPLINE
  5
1f6
100
AcDbEntity
  8
Layer_1
 62
7
100
AcDbSpline
 70
8
 71
3
 72
8
 73
4
 74
0
 40
0
 40
0
 40
0
 40
0
 40
1
 40
1
 40
1
 40
1
 10
18.025239
 20
182.462526
 30
0.0
 10
18.315921
 20
182.753207
 30
0.0
 10
18.710169
 20
182.916510
 30
0.0
 10
19.121255
 20
182.916510
 30
0.0
  0
SPLINE
  5
1f7
100
AcDbEntity
  8
Layer_1
 62
7
100
AcDbSpline
 70
8
 71
3
 72
8
 73
4
 74
0
 40
0
 40
0
 40
0
 40
0
 40
1
 40
1
 40
1
 40
1
 10
19.121255
 20
182.916510
 30
0.0
 10
19.532341
 20
182.916510
 30
0.0
 10
19.926589
 20
182.753207
 30
0.0
 10
20.217271
 20
182.462526
 30
0.0
  0
SPLINE
  5
1f8
100
AcDbEntity
  8
Layer_1
 62
7
100
AcDbSpline
 70
8
 71
3
 72
8
 73
4
 74
0
 40
0
 40
0
 40
0
 40
0
 40
1
 40
1
 40
1
 40
1
 10
20.217271
 20
182.462526
 30
0.0
 10
20.507952
 20
182.171844
 30
0.0
 10
20.671255
 20
181.777596
 30
0.0
 10
20.671255
 20
181.366510
 30
0.0
  0
LWPOLYLINE
  5
1f9
100
AcDbEntity
  8
Layer_1
 62
7
100
AcDbPolyline
 90
1
 70
1
 10
94.111261
 20
181.366510
 30
0.0
  0
SPLINE
  5
1fa
100
AcDbEntity
  8
Layer_1
 62
7
100
AcDbSpline
 70
8
 71
3
 72
8
 73
4
 74
0
 40
0
 40
0
 40
0
 40
0
 40
1
 40
1
 40
1
 40
1
 10
22.401199
 20
153.726000
 30
0.0
 10
22.401199
 20
151.914506
 30
0.0
 10
20.932693
 20
150.446000
 30
0.0
 10
19.121199
 20
150.446000
 30
0.0
  0
SPLINE
  5
1fb
100
AcDbEntity
  8
Layer_1
 62
7
100
AcDbSpline
 70
8
 71
3
 72
8
 73
4
 74
0
 40
0
 40
0
 40
0
 40
0
 40
1
 40
1
 40
1
 40
1
 10
19.121199
 20
150.446000
 30
0.0
 10
17.309705
 20
150.446000
 30
0.0
 10
15.841199
 20
151.914506
 30
0.0
 10
15.841199
 20
153.726000
 30
0.0
  0
SPLINE
  5
1fc
100
AcDbEntity
  8
Layer_1
 62
7
100
AcDbSpline
 70
8
 71
3
 72
8
 73
4
 74
0
 40
0
 40
0
 40
0
 40
0
 40
1
 40
1
 40
1
 40
1
 10
15.841199
 20
153.726000
 30
0.0
 10
15.841199
 20
154.897831
 30
0.0
 10
16.466363
 20
155.980648
 30
0.0
 10
17.481199
 20
156.566563
 30
0.0
  0
SPLINE
  5
1fd
100
AcDbEntity
  8
Layer_1
 62
7
100
AcDbSpline
 70
8
 71
3
 72
8
 73
4
 74
0
 40
0
 40
0
 40
0
 40
0
 40
1
 40
1
 40
1
 40
1
 10
17.481199
 20
156.566563
 30
0.0
 10
18.496035
 20
157.152479
 30
0.0
 10
19.746363
 20
157.152479
 30
0.0
 10
20.761199
 20
156.566563
 30
0.0
  0
SPLINE
  5
1fe
100
AcDbEntity
  8
Layer_1
 62
7
100
AcDbSpline
 70
8
 71
3
 72
8
 73
4
 74
0
 40
0
 40
0
 40
0
 40
0
 40
1
 40
1
 40
1
 40
1
 10
20.761199
 20
156.566563
 30
0.0
 10
21.776035
 20
155.980648
 30
0.0
 10
22.401199
 20
154.897831
 30
0.0
 10
22.401199
 20
153.726000
 30
0.0
  0
LWPOLYLINE
  5
1ff
100
AcDbEntity
  8
Layer_1
 62
7
100
AcDbPolyline
 90
1
 70
1
 10
20.671255
 20
181.366510
 30
0.0
  0
SPLINE
  5
200
100
AcDbEntity
  8
Layer_1
 62
7
100
AcDbSpline
 70
8
 71
3
 72
8
 73
4
 74
0
 40
0
 40
0
 40
0
 40
0
 40
1
 40
1
 40
1
 40
1
 10
20.671199
 20
153.726050
 30
0.0
 10
20.671199
 20
153.314964
 30
0.0
 10
20.507896
 20
152.920716
 30
0.0
 10
20.217215
 20
152.630034
 30
0.0
  0
SPLINE
  5
201
100
AcDbEntity
  8
Layer_1
 62
7
100
AcDbSpline
 70
8
 71
3
 72
8
 73
4
 74
0
 40
0
 40
0
 40
0
 40
0
 40
1
 40
1
 40
1
 40
1
 10
20.217215
 20
152.630034
 30
0.0
 10
19.926533
 20
152.339353
 30
0.0
 10
19.532285
 20
152.176050
 30
0.0
 10
19.121199
 20
152.176050
 30
0.0
  0
SPLINE
  5
202
100
AcDbEntity
  8
Layer_1
 62
7
100
AcDbSpline
 70
8
 71
3
 72
8
 73
4
 74
0
 40
0
 40
0
 40
0
 40
0
 40
1
 40
1
 40
1
 40
1
 10
19.121199
 20
152.176050
 30
0.0
 10
18.710113
 20
152.176050
 30
0.0
 10
18.315865
 20
152.339353
 30
0.0
 10
18.025183
 20
152.630034
 30
0.0
  0
SPLINE
  5
203
100
AcDbEntity
  8
Layer_1
 62
7
100
AcDbSpline
 70
8
 71
3
 72
8
 73
4
 74
0
 40
0
 40
0
 40
0
 40
0
 40
1
 40
1
 40
1
 40
1
 10
18.025183
 20
152.630034
 30
0.0
 10
17.734502
 20
152.920716
 30
0.0
 10
17.571199
 20
153.314964
 30
0.0
 10
17.571199
 20
153.726050
 30
0.0
  0
SPLINE
  5
204
100
AcDbEntity
  8
Layer_1
 62
7
100
AcDbSpline
 70
8
 71
3
 72
8
 73
4
 74
0
 40
0
 40
0
 40
0
 40
0
 40
1
 40
1
 40
1
 40
1
 10
17.571199
 20
153.726050
 30
0.0
 10
17.571199
 20
154.137136
 30
0.0
 10
17.734502
 20
154.531384
 30
0.0
 10
18.025183
 20
154.822066
 30
0.0
  0
SPLINE
  5
205
100
AcDbEntity
  8
Layer_1
 62
7
100
AcDbSpline
 70
8
 71
3
 72
8
 73
4
 74
0
 40
0
 40
0
 40
0
 40
0
 40
1
 40
1
 40
1
 40
1
 10
18.025183
 20
154.822066
 30
0.0
 10
18.315865
 20
155.112747
 30
0.0
 10
18.710113
 20
155.276050
 30
0.0
 10
19.121199
 20
155.276050
 30
0.0
  0
SPLINE
  5
206
100
AcDbEntity
  8
Layer_1
 62
7
100
AcDbSpline
 70
8
 71
3
 72
8
 73
4
 74
0
 40
0
 40
0
 40
0
 40
0
 40
1
 40
1
 40
1
 40
1
 10
19.121199
 20
155.276050
 30
0.0
 10
19.532285
 20
155.276050
 30
0.0
 10
19.926533
 20
155.112747
 30
0.0
 10
20.217215
 20
154.822066
 30
0.0
  0
SPLINE
  5
207
100
AcDbEntity
  8
Layer_1
 62
7
100
AcDbSpline
 70
8
 71
3
 72
8
 73
4
 74
0
 40
0
 40
0
 40
0
 40
0
 40
1
 40
1
 40
1
 40
1
 10
20.217215
 20
154.822066
 30
0.0
 10
20.507896
 20
154.531384
 30
0.0
 10
20.671199
 20
154.137136
 30
0.0
 10
20.671199
 20
153.726050
 30
0.0
  0
LWPOLYLINE
  5
208
100
AcDbEntity
  8
Layer_1
 62
7
100
AcDbPolyline
 90
1
 70
1
 10
22.401199
 20
153.726000
 30
0.0
  0
SPLINE
  5
209
100
AcDbEntity
  8
Layer_1
 62
7
100
AcDbSpline
 70
8
 71
3
 72
8
 73
4
 74
0
 40
0
 40
0
 40
0
 40
0
 40
1
 40
1
 40
1
 40
1
 10
32.984531
 20
153.726000
 30
0.0
 10
32.984531
 20
151.914506
 30
0.0
 10
31.516025
 20
150.446000
 30
0.0
 10
29.704531
 20
150.446000
 30
0.0
  0
SPLINE
  5
20a
100
AcDbEntity
  8
Layer_1
 62
7
100
AcDbSpline
 70
8
 71
3
 72
8
 73
4
 74
0
 40
0
 40
0
 40
0
 40
0
 40
1
 40
1
 40
1
 40
1
 10
29.704531
 20
150.446000
 30
0.0
 10
27.893037
 20
150.446000
 30
0.0
 10
26.424531
 20
151.914506
 30
0.0
 10
26.424531
 20
153.726000
 30
0.0
  0
SPLINE
  5
20b
100
AcDbEntity
  8
Layer_1
 62
7
100
AcDbSpline
 70
8
 71
3
 72
8
 73
4
 74
0
 40
0
 40
0
 40
0
 40
0
 40
1
 40
1
 40
1
 40
1
 10
26.424531
 20
153.726000
 30
0.0
 10
26.424531
 20
154.897831
 30
0.0
 10
27.049695
 20
155.980648
 30
0.0
 10
28.064531
 20
156.566563
 30
0.0
  0
SPLINE
  5
20c
100
AcDbEntity
  8
Layer_1
 62
7
100
AcDbSpline
 70
8
 71
3
 72
8
 73
4
 74
0
 40
0
 40
0
 40
0
 40
0
 40
1
 40
1
 40
1
 40
1
 10
28.064531
 20
156.566563
 30
0.0
 10
29.079367
 20
157.152479
 30
0.0
 10
30.329695
 20
157.152479
 30
0.0
 10
31.344531
 20
156.566563
 30
0.0
  0
SPLINE
  5
20d
100
AcDbEntity
  8
Layer_1
 62
7
100
AcDbSpline
 70
8
 71
3
 72
8
 73
4
 74
0
 40
0
 40
0
 40
0
 40
0
 40
1
 40
1
 40
1
 40
1
 10
31.344531
 20
156.566563
 30
0.0
 10
32.359367
 20
155.980648
 30
0.0
 10
32.984531
 20
154.897831
 30
0.0
 10
32.984531
 20
153.726000
 30
0.0
  0
LWPOLYLINE
  5
20e
100
AcDbEntity
  8
Layer_1
 62
7
100
AcDbPolyline
 90
1
 70
1
 10
20.671199
 20
153.726050
 30
0.0
  0
SPLINE
  5
20f
100
AcDbEntity
  8
Layer_1
 62
7
100
AcDbSpline
 70
8
 71
3
 72
8
 73
4
 74
0
 40
0
 40
0
 40
0
 40
0
 40
1
 40
1
 40
1
 40
1
 10
31.254533
 20
153.726050
 30
0.0
 10
31.254533
 20
153.314964
 30
0.0
 10
31.091230
 20
152.920716
 30
0.0
 10
30.800549
 20
152.630034
 30
0.0
  0
SPLINE
  5
210
100
AcDbEntity
  8
Layer_1
 62
7
100
AcDbSpline
 70
8
 71
3
 72
8
 73
4
 74
0
 40
0
 40
0
 40
0
 40
0
 40
1
 40
1
 40
1
 40
1
 10
30.800549
 20
152.630034
 30
0.0
 10
30.509867
 20
152.339353
 30
0.0
 10
30.115619
 20
152.176050
 30
0.0
 10
29.704533
 20
152.176050
 30
0.0
  0
SPLINE
  5
211
100
AcDbEntity
  8
Layer_1
 62
7
100
AcDbSpline
 70
8
 71
3
 72
8
 73
4
 74
0
 40
0
 40
0
 40
0
 40
0
 40
1
 40
1
 40
1
 40
1
 10
29.704533
 20
152.176050
 30
0.0
 10
29.293447
 20
152.176050
 30
0.0
 10
28.899199
 20
152.339353
 30
0.0
 10
28.608517
 20
152.630034
 30
0.0
  0
SPLINE
  5
212
100
AcDbEntity
  8
Layer_1
 62
7
100
AcDbSpline
 70
8
 71
3
 72
8
 73
4
 74
0
 40
0
 40
0
 40
0
 40
0
 40
1
 40
1
 40
1
 40
1
 10
28.608517
 20
152.630034
 30
0.0
 10
28.317836
 20
152.920716
 30
0.0
 10
28.154533
 20
153.314964
 30
0.0
 10
28.154533
 20
153.726050
 30
0.0
  0
SPLINE
  5
213
100
AcDbEntity
  8
Layer_1
 62
7
100
AcDbSpline
 70
8
 71
3
 72
8
 73
4
 74
0
 40
0
 40
0
 40
0
 40
0
 40
1
 40
1
 40
1
 40
1
 10
28.154533
 20
153.726050
 30
0.0
 10
28.154533
 20
154.137136
 30
0.0
 10
28.317836
 20
154.531384
 30
0.0
 10
28.608517
 20
154.822066
 30
0.0
  0
SPLINE
  5
214
100
AcDbEntity
  8
Layer_1
 62
7
100
AcDbSpline
 70
8
 71
3
 72
8
 73
4
 74
0
 40
0
 40
0
 40
0
 40
0
 40
1
 40
1
 40
1
 40
1
 10
28.608517
 20
154.822066
 30
0.0
 10
28.899199
 20
155.112747
 30
0.0
 10
29.293447
 20
155.276050
 30
0.0
 10
29.704533
 20
155.276050
 30
0.0
  0
SPLINE
  5
215
100
AcDbEntity
  8
Layer_1
 62
7
100
AcDbSpline
 70
8
 71
3
 72
8
 73
4
 74
0
 40
0
 40
0
 40
0
 40
0
 40
1
 40
1
 40
1
 40
1
 10
29.704533
 20
155.276050
 30
0.0
 10
30.115619
 20
155.276050
 30
0.0
 10
30.509867
 20
155.112747
 30
0.0
 10
30.800549
 20
154.822066
 30
0.0
  0
SPLINE
  5
216
100
AcDbEntity
  8
Layer_1
 62
7
100
AcDbSpline
 70
8
 71
3
 72
8
 73
4
 74
0
 40
0
 40
0
 40
0
 40
0
 40
1
 40
1
 40
1
 40
1
 10
30.800549
 20
154.822066
 30
0.0
 10
31.091230
 20
154.531384
 30
0.0
 10
31.254533
 20
154.137136
 30
0.0
 10
31.254533
 20
153.726050
 30
0.0
  0
LWPOLYLINE
  5
217
100
AcDbEntity
  8
Layer_1
 62
7
100
AcDbPolyline
 90
1
 70
1
 10
32.984531
 20
153.726000
 30
0.0
  0
LWPOLYLINE
  5
218
100
AcDbEntity
  8
Layer_1
 62
7
100
AcDbPolyline
 90
1
 70
1
 10
31.254533
 20
153.726050
 30
0.0
  0
LWPOLYLINE
  5
219
100
AcDbEntity
  8
Layer_1
 62
7
100
AcDbPolyline
 90
4
 70
1
 10
18.947525
 20
41.340060
 30
0.0
 10
28.947525
 20
41.340060
 30
0.0
 10
28.947525
 20
31.340060
 30
0.0
 10
18.947525
 20
31.340060
 30
0.0
  0
ENDSEC
  0
SECTION
  2
OBJECTS
  0
DICTIONARY
  5
C
330
0
100
AcDbDictionary
  3
ACAD_GROUP
350
D
  3
ACAD_MLINESTYLE
350
17
  0
DICTIONARY
  5
D
330
C
100
AcDbDictionary
  0
DICTIONARY
  5
1A
330
C
100
AcDbDictionary
  0
DICTIONARY
  5
17
330
C
100
AcDbDictionary
  3
STANDARD
350
18
  0
DICTIONARY
  5
19
330
C
100
AcDbDictionary
  0
ENDSEC
  0
EOF
