<?xml version="1.0" encoding="UTF-8" standalone="no"?>
<!-- Created with Inkscape (http://www.inkscape.org/) -->

<svg
   xmlns:dc="http://purl.org/dc/elements/1.1/"
   xmlns:cc="http://creativecommons.org/ns#"
   xmlns:rdf="http://www.w3.org/1999/02/22-rdf-syntax-ns#"
   xmlns:svg="http://www.w3.org/2000/svg"
   xmlns="http://www.w3.org/2000/svg"
   xmlns:sodipodi="http://sodipodi.sourceforge.net/DTD/sodipodi-0.dtd"
   xmlns:inkscape="http://www.inkscape.org/namespaces/inkscape"
   width="210mm"
   height="297mm"
   viewBox="0 0 210 297"
   version="1.1"
   id="svg8"
   inkscape:version="0.92.3 (2405546, 2018-03-11)"
   sodipodi:docname="poper.svg">
  <defs
     id="defs2" />
  <sodipodi:namedview
     id="base"
     pagecolor="#ffffff"
     bordercolor="#666666"
     borderopacity="1.0"
     inkscape:pageopacity="0.0"
     inkscape:pageshadow="2"
     inkscape:zoom="0.84482235"
     inkscape:cx="438.94588"
     inkscape:cy="619.83677"
     inkscape:document-units="mm"
     inkscape:current-layer="layer1"
     showgrid="false"
     showguides="true"
     inkscape:guide-bbox="true"
     inkscape:snap-bbox="true"
     inkscape:snap-bbox-midpoints="true"
     inkscape:snap-object-midpoints="true"
     inkscape:snap-center="true"
     inkscape:bbox-nodes="true"
     inkscape:window-width="1920"
     inkscape:window-height="1057"
     inkscape:window-x="-8"
     inkscape:window-y="-8"
     inkscape:window-maximized="1" />
  <metadata
     id="metadata5">
    <rdf:RDF>
      <cc:Work
         rdf:about="">
        <dc:format>image/svg+xml</dc:format>
        <dc:type
           rdf:resource="http://purl.org/dc/dcmitype/StillImage" />
        <dc:title></dc:title>
      </cc:Work>
    </rdf:RDF>
  </metadata>
  <g
     inkscape:label="Layer 1"
     inkscape:groupmode="layer"
     id="layer1">
    <path
       style="opacity:0.5;fill:#000000;fill-opacity:1;stroke:none;stroke-width:0.11102955;stroke-miterlimit:4;stroke-dasharray:none;stroke-opacity:1"
       d="m 20.671197,210.68819 a 1.55,1.55 0 0 1 -1.55,1.55 1.55,1.55 0 0 1 -1.55,-1.55 1.55,1.55 0 0 1 1.55,-1.55 1.55,1.55 0 0 1 1.55,1.55 z"
       id="circle865" />
    <path
       style="opacity:0.5;fill:#000000;fill-opacity:1;stroke:none;stroke-width:0.11102955;stroke-miterlimit:4;stroke-dasharray:none;stroke-opacity:1"
       d="m 74.39925,241.68808 a 1.55,1.55 0 0 1 -1.55,1.55 1.55,1.55 0 0 1 -1.55,-1.55 1.55,1.55 0 0 1 1.55,-1.55 1.55,1.55 0 0 1 1.55,1.55 z"
       id="circle917"
       inkscape:connector-curvature="0" />
    <path
       style="opacity:0.5;fill:#000000;fill-opacity:1;stroke:none;stroke-width:0.11102955;stroke-miterlimit:4;stroke-dasharray:none;stroke-opacity:1"
       d="m 26.839212,241.68808 a 1.55,1.55 0 0 1 -1.55,1.55 1.55,1.55 0 0 1 -1.55,-1.55 1.55,1.55 0 0 1 1.55,-1.55 1.55,1.55 0 0 1 1.55,1.55 z"
       id="circle919"
       inkscape:connector-curvature="0" />
    <path
       style="opacity:0.5;fill:#000000;fill-opacity:1;stroke:none;stroke-width:0.11102955;stroke-miterlimit:4;stroke-dasharray:none;stroke-opacity:1"
       d="m 94.111203,210.68819 a 1.55,1.55 0 0 1 -1.55,1.55 1.55,1.55 0 0 1 -1.55,-1.55 1.55,1.55 0 0 1 1.55,-1.55 1.55,1.55 0 0 1 1.55,1.55 z"
       id="circle931" />
    <path
       style="opacity:0.5;fill:#000000;fill-opacity:1;stroke:none;stroke-width:0.29499999;stroke-miterlimit:4;stroke-dasharray:none;stroke-opacity:1"
       d="m 19.180822,149.1998 h 73.320754 c 1.850151,0 3.339623,1.48947 3.339623,3.33962 v 48.32076 c 0,1.85015 -1.489472,3.33962 -3.339623,3.33962 H 19.180822 c -1.850151,0 -3.339623,-1.48947 -3.339623,-3.33962 v -48.32076 c 0,-1.85015 1.489472,-3.33962 3.339623,-3.33962 z"
       id="rect995" />
    <path
       style="opacity:0.5;fill:#000000;fill-opacity:1;stroke:none;stroke-width:0.11102955;stroke-miterlimit:4;stroke-dasharray:none;stroke-opacity:1"
       d="m 20.671197,152.4798 a 1.55,1.55 0 0 1 -1.55,1.55 1.55,1.55 0 0 1 -1.55,-1.55 1.55,1.55 0 0 1 1.55,-1.55 1.55,1.55 0 0 1 1.55,1.55 z"
       id="circle997" />
    <path
       style="opacity:0.5;fill:#000000;fill-opacity:1;stroke:none;stroke-width:0.11102955;stroke-miterlimit:4;stroke-dasharray:none;stroke-opacity:1"
       d="m 94.111203,200.91982 a 1.55,1.55 0 0 1 -1.55,1.55 1.55,1.55 0 0 1 -1.55,-1.55 1.55,1.55 0 0 1 1.55,-1.55 1.55,1.55 0 0 1 1.55,1.55 z"
       id="circle999" />
    <path
       style="opacity:0.5;fill:#000000;fill-opacity:1;stroke:none;stroke-width:0.11102955;stroke-miterlimit:4;stroke-dasharray:none;stroke-opacity:1"
       d="m 20.671199,200.91982 a 1.55,1.55 0 0 1 -1.55,1.55 1.55,1.55 0 0 1 -1.55,-1.55 1.55,1.55 0 0 1 1.55,-1.55 1.55,1.55 0 0 1 1.55,1.55 z"
       id="circle1001" />
    <path
       style="opacity:0.5;fill:#000000;fill-opacity:1;stroke:none;stroke-width:0.11102955;stroke-miterlimit:4;stroke-dasharray:none;stroke-opacity:1"
       d="m 94.111203,152.4798 a 1.55,1.55 0 0 1 -1.55,1.55 1.55,1.55 0 0 1 -1.55,-1.55 1.55,1.55 0 0 1 1.55,-1.55 1.55,1.55 0 0 1 1.55,1.55 z"
       id="circle1015" />
    <path
       style="opacity:0.5;fill:#000000;fill-opacity:1;stroke:none;stroke-width:0.0959011;stroke-miterlimit:4;stroke-dasharray:none;stroke-opacity:1"
       d="m 81.365,191.69366 a 6,6 0 0 1 -6,6 6,6 0 0 1 -6,-6 6,6 0 0 1 6,-6 6,6 0 0 1 6,6 z"
       id="circle1017"
       inkscape:connector-curvature="0" />
    <path
       style="opacity:0.5;fill:#000000;fill-opacity:1;stroke:none;stroke-width:0.11102955;stroke-miterlimit:4;stroke-dasharray:none;stroke-opacity:1"
       d="m 20.671189,57.930412 a 1.55,1.55 0 0 1 -1.55,1.55 1.55,1.55 0 0 1 -1.55,-1.55 1.55,1.55 0 0 1 1.55,-1.55 1.55,1.55 0 0 1 1.55,1.55 z"
       id="circle1045"
       inkscape:connector-curvature="0" />
    <path
       style="opacity:0.5;fill:#000000;fill-opacity:1;stroke:none;stroke-width:0.11102955;stroke-miterlimit:4;stroke-dasharray:none;stroke-opacity:1"
       d="m 68.231239,57.930412 a 1.55,1.55 0 0 1 -1.55,1.55 1.55,1.55 0 0 1 -1.55,-1.55 1.55,1.55 0 0 1 1.55,-1.55 1.55,1.55 0 0 1 1.55,1.55 z"
       id="circle1047"
       inkscape:connector-curvature="0" />
    <path
       style="opacity:0.5;fill:#000000;fill-opacity:1;stroke:none;stroke-width:0.11102955;stroke-miterlimit:4;stroke-dasharray:none;stroke-opacity:1"
       d="m 68.231239,67.490332 a 1.55,1.55 0 0 1 -1.55,1.55 1.55,1.55 0 0 1 -1.55,-1.55 1.55,1.55 0 0 1 1.55,-1.55 1.55,1.55 0 0 1 1.55,1.55 z"
       id="circle1049"
       inkscape:connector-curvature="0" />
    <path
       style="opacity:0.5;fill:#000000;fill-opacity:1;stroke:none;stroke-width:0.11102955;stroke-miterlimit:4;stroke-dasharray:none;stroke-opacity:1"
       d="m 20.671189,67.490332 a 1.55,1.55 0 0 1 -1.55,1.55 1.55,1.55 0 0 1 -1.55,-1.55 1.55,1.55 0 0 1 1.55,-1.55 1.55,1.55 0 0 1 1.55,1.55 z"
       id="circle1051"
       inkscape:connector-curvature="0" />
    <path
       style="opacity:0.5;fill:#000000;fill-opacity:1;stroke:none;stroke-width:0.26499999;stroke-miterlimit:4;stroke-dasharray:none;stroke-opacity:1"
       d="m 18.841199,54.740402 h 48.12005 c 1.662,0 3,1.338 3,3 v 10.02991 c 0,1.662 -1.338,3 -3,3 h -48.12005 c -1.662,0 -3,-1.338 -3,-3 v -10.02991 c 0,-1.662 1.338,-3 3,-3 z"
       id="rect1106"
       inkscape:connector-curvature="0" />
    <path
       id="path1109"
       d="m 26.8392,232.12816 a 1.55,1.55 0 0 1 -1.55,1.55 1.55,1.55 0 0 1 -1.55,-1.55 1.55,1.55 0 0 1 1.55,-1.55 1.55,1.55 0 0 1 1.55,1.55 z"
       style="opacity:0.5;fill:#000000;fill-opacity:1;stroke:none;stroke-width:0.11102955;stroke-miterlimit:4;stroke-dasharray:none;stroke-opacity:1"
       inkscape:connector-curvature="0" />
    <path
       id="path1111"
       d="m 74.39925,232.12816 a 1.55,1.55 0 0 1 -1.55,1.55 1.55,1.55 0 0 1 -1.55,-1.55 1.55,1.55 0 0 1 1.55,-1.55 1.55,1.55 0 0 1 1.55,1.55 z"
       style="opacity:0.5;fill:#000000;fill-opacity:1;stroke:none;stroke-width:0.11102955;stroke-miterlimit:4;stroke-dasharray:none;stroke-opacity:1"
       inkscape:connector-curvature="0" />
    <path
       id="path1119"
       d="m 19.180819,81.353646 h 73.3208 c 1.85015,0 3.33963,1.48947 3.33963,3.33962 v 48.320764 c 0,1.85015 -1.48948,3.33962 -3.33963,3.33962 h -73.3208 c -1.85015,0 -3.33962,-1.48947 -3.33962,-3.33962 V 84.693266 c 0,-1.85015 1.48947,-3.33962 3.33962,-3.33962 z"
       style="opacity:0.5;fill:#000000;fill-opacity:1;stroke:none;stroke-width:0.29499999;stroke-miterlimit:4;stroke-dasharray:none;stroke-opacity:1"
       inkscape:connector-curvature="0" />
    <path
       id="path1121"
       d="m 20.671199,84.633646 a 1.55,1.55 0 0 1 -1.55,1.55 1.55,1.55 0 0 1 -1.55,-1.55 1.55,1.55 0 0 1 1.55,-1.55 1.55,1.55 0 0 1 1.55,1.55 z"
       style="opacity:0.5;fill:#000000;fill-opacity:1;stroke:none;stroke-width:0.11102955;stroke-miterlimit:4;stroke-dasharray:none;stroke-opacity:1"
       inkscape:connector-curvature="0" />
    <path
       id="path1123"
       d="m 94.111249,133.07366 a 1.55,1.55 0 0 1 -1.55,1.55 1.55,1.55 0 0 1 -1.55,-1.55 1.55,1.55 0 0 1 1.55,-1.55 1.55,1.55 0 0 1 1.55,1.55 z"
       style="opacity:0.5;fill:#000000;fill-opacity:1;stroke:none;stroke-width:0.11102955;stroke-miterlimit:4;stroke-dasharray:none;stroke-opacity:1"
       inkscape:connector-curvature="0" />
    <path
       id="path1125"
       d="m 20.671199,133.07366 a 1.55,1.55 0 0 1 -1.55,1.55 1.55,1.55 0 0 1 -1.55,-1.55 1.55,1.55 0 0 1 1.55,-1.55 1.55,1.55 0 0 1 1.55,1.55 z"
       style="opacity:0.5;fill:#000000;fill-opacity:1;stroke:none;stroke-width:0.11102955;stroke-miterlimit:4;stroke-dasharray:none;stroke-opacity:1"
       inkscape:connector-curvature="0" />
    <path
       id="path1131"
       d="m 94.111249,84.633646 a 1.55,1.55 0 0 1 -1.55,1.55 1.55,1.55 0 0 1 -1.55,-1.55 1.55,1.55 0 0 1 1.55,-1.55 1.55,1.55 0 0 1 1.55,1.55 z"
       style="opacity:0.5;fill:#000000;fill-opacity:1;stroke:none;stroke-width:0.11102955;stroke-miterlimit:4;stroke-dasharray:none;stroke-opacity:1"
       inkscape:connector-curvature="0" />
    <path
       style="opacity:0.5;fill:#000000;fill-opacity:1;stroke:none;stroke-width:0.26499999;stroke-miterlimit:4;stroke-dasharray:none;stroke-opacity:1"
       d="m 18.841203,207.40819 h 73.999984 c 1.662002,0 3.000004,1.338 3.000004,3 v 31.55987 c 0,1.662 -1.338002,3 -3.000004,3 H 18.841203 c -1.662002,0 -3.000004,-1.338 -3.000004,-3 v -31.55987 c 0,-1.662 1.338002,-3 3.000004,-3 z"
       id="rect1153" />
    <path
       id="path1193"
       d="m 94.111203,241.68806 a 1.55,1.55 0 0 1 -1.55,1.55 1.55,1.55 0 0 1 -1.55,-1.55 1.55,1.55 0 0 1 1.55,-1.55 1.55,1.55 0 0 1 1.55,1.55 z"
       style="opacity:0.5;fill:#000000;fill-opacity:1;stroke:none;stroke-width:0.11102955;stroke-miterlimit:4;stroke-dasharray:none;stroke-opacity:1"
       inkscape:connector-curvature="0" />
    <path
       inkscape:connector-curvature="0"
       style="opacity:0.5;fill:#000000;fill-opacity:1;stroke:none;stroke-width:0.11102955;stroke-miterlimit:4;stroke-dasharray:none;stroke-opacity:1"
       d="m 20.671197,241.68806 a 1.55,1.55 0 0 1 -1.55,1.55 1.55,1.55 0 0 1 -1.55,-1.55 1.55,1.55 0 0 1 1.55,-1.55 1.55,1.55 0 0 1 1.55,1.55 z"
       id="path1213" />
    <path
       id="path1219"
       d="m 20.671255,84.633629 a 1.55,1.55 0 0 1 -1.55,1.549997 1.55,1.55 0 0 1 -1.55,-1.549997 1.55,1.55 0 0 1 1.55,-1.55 1.55,1.55 0 0 1 1.55,1.55 z"
       style="opacity:0.5;fill:#000000;fill-opacity:1;stroke:none;stroke-width:0.11102955;stroke-miterlimit:4;stroke-dasharray:none;stroke-opacity:1"
       inkscape:connector-curvature="0" />
    <path
       id="path1225"
       d="m 94.111261,84.633629 a 1.55,1.55 0 0 1 -1.55,1.549997 1.55,1.55 0 0 1 -1.55,-1.549997 1.55,1.55 0 0 1 1.55,-1.55 1.55,1.55 0 0 1 1.55,1.55 z"
       style="opacity:0.5;fill:#000000;fill-opacity:1;stroke:none;stroke-width:0.11102955;stroke-miterlimit:4;stroke-dasharray:none;stroke-opacity:1"
       inkscape:connector-curvature="0" />
    <path
       inkscape:connector-curvature="0"
       style="opacity:0.5;fill:#000000;fill-opacity:1;stroke:none;stroke-width:0.11102955;stroke-miterlimit:4;stroke-dasharray:none;stroke-opacity:1"
       d="m 94.111261,115.63349 a 1.55,1.55 0 0 1 -1.55,1.55 1.55,1.55 0 0 1 -1.55,-1.55 1.55,1.55 0 0 1 1.55,-1.55 1.55,1.55 0 0 1 1.55,1.55 z"
       id="path1235" />
    <path
       id="path1237"
       d="m 20.671255,115.63349 a 1.55,1.55 0 0 1 -1.55,1.55 1.55,1.55 0 0 1 -1.55,-1.55 1.55,1.55 0 0 1 1.55,-1.55 1.55,1.55 0 0 1 1.55,1.55 z"
       style="opacity:0.5;fill:#000000;fill-opacity:1;stroke:none;stroke-width:0.11102955;stroke-miterlimit:4;stroke-dasharray:none;stroke-opacity:1"
       inkscape:connector-curvature="0" />
    <circle
       style="opacity:0.5;fill:#000000;fill-opacity:1;stroke:none;stroke-width:0.26499999;stroke-miterlimit:4;stroke-dasharray:none;stroke-opacity:1"
       id="path1246"
       cx="19.121199"
       cy="143.274"
       r="3.28" />
    <path
       inkscape:connector-curvature="0"
       style="opacity:0.5;fill:#000000;fill-opacity:1;stroke:none;stroke-width:0.11102955;stroke-miterlimit:4;stroke-dasharray:none;stroke-opacity:1"
       d="m 20.671199,143.27395 a 1.55,1.55 0 0 1 -1.55,1.55 1.55,1.55 0 0 1 -1.55,-1.55 1.55,1.55 0 0 1 1.55,-1.55 1.55,1.55 0 0 1 1.55,1.55 z"
       id="path1248" />
    <circle
       r="3.28"
       cy="143.274"
       cx="29.704531"
       id="circle1250"
       style="opacity:0.5;fill:#000000;fill-opacity:1;stroke:none;stroke-width:0.26499999;stroke-miterlimit:4;stroke-dasharray:none;stroke-opacity:1" />
    <path
       id="path1252"
       d="m 31.254533,143.27395 a 1.55,1.55 0 0 1 -1.55,1.55 1.55,1.55 0 0 1 -1.55,-1.55 1.55,1.55 0 0 1 1.55,-1.55 1.55,1.55 0 0 1 1.55,1.55 z"
       style="opacity:0.5;fill:#000000;fill-opacity:1;stroke:none;stroke-width:0.11102955;stroke-miterlimit:4;stroke-dasharray:none;stroke-opacity:1"
       inkscape:connector-curvature="0" />
    <rect
       style="opacity:0.5;fill:#000000;fill-opacity:1;stroke:none;stroke-width:0.26499999;stroke-miterlimit:4;stroke-dasharray:none;stroke-opacity:1"
       id="rect1254"
       width="10"
       height="10"
       x="18.947525"
       y="255.65994" />
    <text
       xml:space="preserve"
       style="font-style:normal;font-variant:normal;font-weight:normal;font-stretch:normal;font-size:4.23333311px;line-height:1.25;font-family:Arial;-inkscape-font-specification:Arial;font-variant-ligatures:normal;font-variant-caps:normal;font-variant-numeric:normal;font-feature-settings:normal;text-align:start;letter-spacing:0px;word-spacing:0px;writing-mode:lr-tb;text-anchor:start;fill:#000000;fill-opacity:1;stroke:none;stroke-width:0.26458332"
       x="19.26071"
       y="275.54703"
       id="text1258"><tspan
         sodipodi:role="line"
         id="tspan1256"
         x="19.26071"
         y="275.54703"
         style="stroke-width:0.26458332">this is a 10 x10 mm square</tspan><tspan
         sodipodi:role="line"
         x="19.26071"
         y="280.83868"
         style="stroke-width:0.26458332"
         id="tspan1260">if your is not 10mm something is wrong with the scale</tspan><tspan
         sodipodi:role="line"
         x="19.26071"
         y="286.13034"
         style="stroke-width:0.26458332"
         id="tspan1262">when you imported the file</tspan></text>
    <text
       xml:space="preserve"
       style="font-style:normal;font-variant:normal;font-weight:normal;font-stretch:normal;font-size:4.23333311px;line-height:1.25;font-family:Arial;-inkscape-font-specification:Arial;font-variant-ligatures:normal;font-variant-caps:normal;font-variant-numeric:normal;font-feature-settings:normal;text-align:start;letter-spacing:0px;word-spacing:0px;writing-mode:lr-tb;text-anchor:start;fill:#000000;fill-opacity:1;stroke:none;stroke-width:0.26458332"
       x="15.511928"
       y="24.844658"
       id="text1266"><tspan
         sodipodi:role="line"
         id="tspan1264"
         x="15.511928"
         y="24.844658"
         style="stroke-width:0.26458332">design by Brian Corteil aka @CannonFodder , please use as you wish for none profit.</tspan><tspan
         sodipodi:role="line"
         x="15.511928"
         y="30.136324"
         style="stroke-width:0.26458332"
         id="tspan1268" /><tspan
         sodipodi:role="line"
         x="15.511928"
         y="35.42799"
         style="stroke-width:0.26458332"
         id="tspan1270">WARNING!!! KEEP EYES AWAY FROM PARTY POPPER WHEN FIRING, WHEN NOT FIRING</tspan><tspan
         sodipodi:role="line"
         x="15.511928"
         y="40.719658"
         style="stroke-width:0.26458332"
         id="tspan1274">DISCONECT </tspan><tspan
         sodipodi:role="line"
         x="15.511928"
         y="46.011322"
         style="stroke-width:0.26458332"
         id="tspan1272"> </tspan></text>
    <text
       xml:space="preserve"
       style="font-style:normal;font-variant:normal;font-weight:normal;font-stretch:normal;font-size:8.46666622px;line-height:1.25;font-family:Arial;-inkscape-font-specification:Arial;font-variant-ligatures:normal;font-variant-caps:normal;font-variant-numeric:normal;font-feature-settings:normal;text-align:start;letter-spacing:0px;word-spacing:0px;writing-mode:lr-tb;text-anchor:start;fill:#000000;fill-opacity:1;stroke:none;stroke-width:0.26458332"
       x="48.937275"
       y="11.377823"
       id="text1278"><tspan
         sodipodi:role="line"
         id="tspan1276"
         x="48.937275"
         y="11.377823"
         style="stroke-width:0.26458332">Servo Party Popper Launcher</tspan></text>
    <flowRoot
       xml:space="preserve"
       id="flowRoot1280"
       style="fill:black;fill-opacity:1;stroke:none;font-family:Arial;font-style:normal;font-weight:normal;font-size:16px;line-height:1.25;letter-spacing:0px;word-spacing:0px;-inkscape-font-specification:Arial;font-stretch:normal;font-variant:normal;text-anchor:start;text-align:start;writing-mode:lr;font-variant-ligatures:normal;font-variant-caps:normal;font-variant-numeric:normal;font-feature-settings:normal"><flowRegion
         id="flowRegion1282"><rect
           id="rect1284"
           width="372.85947"
           height="802.53558"
           x="398.90042"
           y="177.94241" /></flowRegion><flowPara
         id="flowPara1286"></flowPara></flowRoot>  </g>
</svg>
